P2
# CREATOR: GIMP PNM Filter Version 1.1
92 112
255
255
255
255
255
255
255
255
255
255
255
255
255
255
255
255
255
255
255
255
255
255
255
255
255
255
255
255
255
255
255
255
255
255
255
255
255
255
255
255
255
255
255
255
255
255
255
255
255
255
255
255
255
255
255
255
255
255
255
255
255
255
255
255
255
255
255
255
255
255
255
255
255
255
255
255
255
255
255
255
255
255
255
255
255
255
255
255
255
255
255
255
255
255
255
255
255
255
255
255
255
255
255
255
255
255
255
255
255
255
255
255
255
255
255
255
255
255
255
255
255
255
255
255
255
255
255
255
255
255
255
255
255
255
255
255
255
255
255
255
255
255
255
255
255
255
255
255
255
255
255
255
255
255
255
255
255
255
255
255
255
255
255
255
255
255
255
255
255
255
255
255
255
255
255
255
255
255
255
255
255
255
255
255
255
255
255
255
255
255
255
255
255
255
255
255
255
255
255
255
255
255
255
255
255
255
255
255
255
255
255
255
255
255
255
255
255
255
255
255
255
255
255
255
255
255
255
255
255
255
255
255
255
255
255
255
255
255
255
255
255
255
255
255
255
255
255
255
255
255
255
255
255
255
255
255
255
255
255
255
255
255
255
255
255
255
255
255
255
255
255
255
255
255
255
255
255
255
255
255
255
255
255
255
255
255
255
255
255
255
255
255
255
255
255
255
255
255
255
255
255
255
255
255
255
255
255
255
255
255
255
255
255
255
255
255
255
255
255
255
255
255
255
255
255
255
255
255
255
255
255
255
255
255
255
255
255
255
255
255
255
255
255
255
255
255
255
255
255
255
255
255
255
255
255
255
255
255
255
255
255
255
255
255
255
255
255
255
255
255
255
255
255
255
255
255
255
255
255
255
255
255
255
255
255
255
255
255
255
255
255
255
255
255
255
255
255
255
255
255
255
255
255
255
255
255
255
255
255
255
255
255
255
255
255
255
255
255
255
255
255
255
255
255
255
255
255
255
255
255
255
255
255
255
255
255
255
255
255
255
255
255
255
255
255
255
255
255
255
255
255
255
255
255
255
255
255
255
255
255
255
255
255
255
255
255
255
255
255
255
255
255
255
255
255
255
255
255
255
255
255
255
255
255
255
255
255
255
255
255
255
255
255
255
255
255
255
255
255
255
255
255
255
255
255
255
255
255
255
255
255
255
255
255
255
255
255
255
255
255
255
255
255
255
255
255
255
255
255
255
255
255
255
255
255
255
255
255
255
255
255
255
255
255
255
255
255
255
255
255
255
255
255
255
255
255
255
255
255
255
255
255
255
255
255
255
255
255
255
255
255
255
255
255
255
255
255
255
255
255
255
255
255
255
255
255
255
255
255
255
255
255
255
255
255
255
255
255
255
255
255
255
255
255
255
255
255
255
255
255
255
255
255
255
255
255
255
255
255
255
255
255
255
255
255
255
255
255
255
255
255
255
255
255
255
255
255
255
255
255
255
255
255
255
255
255
255
255
255
255
255
255
255
255
255
255
255
255
255
255
255
255
255
255
255
255
255
255
255
255
255
255
255
255
255
255
255
255
255
255
255
255
255
255
255
255
255
255
255
255
255
255
255
255
255
255
255
255
255
255
255
255
255
255
255
255
255
255
255
255
255
255
255
255
255
255
255
255
255
255
255
255
255
255
255
255
255
255
255
255
255
255
255
255
255
255
255
255
255
255
255
255
255
255
255
255
255
255
255
255
255
255
255
255
255
255
255
255
255
255
255
255
255
255
255
255
255
255
255
255
255
255
255
255
255
255
255
255
255
255
255
255
255
255
255
255
255
255
255
255
255
255
255
255
255
255
255
255
255
255
255
255
255
255
255
255
255
255
255
255
255
255
255
255
255
255
255
255
255
255
255
255
255
255
255
255
255
255
255
255
255
255
255
255
255
255
255
255
255
255
255
255
255
255
255
255
255
255
255
255
255
255
255
255
255
255
255
255
255
255
255
255
255
255
255
255
255
255
255
255
255
255
255
255
255
255
255
255
255
255
255
255
255
255
255
255
255
255
255
255
255
255
255
255
255
255
255
255
255
255
255
255
255
255
255
255
255
255
255
255
255
255
255
255
255
255
255
255
255
255
255
255
255
255
255
255
255
255
255
255
255
255
255
255
255
255
255
255
255
255
255
255
255
255
255
255
255
255
255
255
255
255
255
255
255
255
255
255
255
255
255
255
255
255
255
255
255
255
255
255
255
255
255
255
255
255
255
255
255
255
255
255
255
255
255
255
255
255
255
255
255
255
255
255
255
255
255
255
255
255
255
255
255
255
255
255
255
255
255
255
255
255
255
255
255
255
255
255
255
255
255
255
255
255
255
255
255
255
255
255
255
255
255
255
255
255
255
255
255
255
255
255
255
255
255
255
255
255
255
255
255
255
255
255
255
255
255
255
255
255
255
255
255
255
255
255
255
255
255
255
255
255
255
255
255
255
255
255
255
255
255
255
255
255
255
255
255
255
255
255
255
255
255
255
255
255
255
255
255
255
255
255
255
255
255
255
255
255
255
255
255
255
255
255
255
255
255
255
255
255
255
255
255
255
255
255
255
255
255
255
255
255
255
255
255
255
255
255
255
255
255
255
255
255
255
255
255
255
255
255
255
255
255
255
255
255
255
255
255
255
255
255
255
255
255
255
255
255
255
255
255
255
255
255
255
255
255
255
255
255
255
255
255
255
255
255
255
255
255
255
255
255
255
255
255
255
255
255
255
255
255
255
255
255
255
255
255
255
255
255
255
255
255
255
255
255
255
255
255
255
255
255
255
255
255
255
255
255
255
255
255
255
255
255
255
255
255
255
255
255
255
255
255
255
255
255
255
255
255
255
255
255
255
255
255
255
255
255
255
255
255
255
255
255
255
255
255
255
255
255
255
255
255
255
255
255
255
255
255
255
255
255
255
255
255
255
255
255
255
255
255
255
255
255
255
255
255
255
255
255
255
255
255
255
255
255
255
255
255
255
255
255
255
255
255
255
255
255
255
255
255
255
255
255
255
255
255
255
255
255
255
255
255
255
255
255
255
255
255
255
255
255
255
255
255
255
255
255
255
255
255
255
255
255
255
255
255
255
255
255
255
255
255
255
255
255
255
255
255
255
255
255
255
255
255
255
255
255
255
255
255
255
255
255
255
255
255
255
255
255
255
255
255
255
255
255
255
255
255
255
255
255
255
255
255
255
255
255
255
255
255
255
255
255
255
255
255
255
255
255
255
255
255
255
255
255
255
255
255
255
255
255
255
255
255
255
255
255
255
255
255
255
255
255
255
255
255
255
255
255
255
255
255
255
255
255
255
255
255
255
255
255
255
255
255
255
255
255
255
255
255
255
255
255
255
255
255
255
255
255
255
255
255
255
255
255
255
255
255
255
255
255
255
255
255
255
255
255
255
255
255
255
255
255
255
255
255
255
255
255
255
255
255
255
255
255
255
255
255
255
255
255
255
255
255
255
255
255
255
255
255
255
255
255
255
255
255
255
255
255
255
255
255
255
255
255
255
255
255
255
255
255
255
255
255
255
255
255
255
255
255
255
255
255
255
255
255
255
255
255
255
255
255
255
255
255
255
255
255
255
255
255
255
255
255
255
255
255
255
255
255
255
255
255
255
255
255
255
255
255
255
255
255
255
255
255
255
255
255
255
255
255
255
255
255
255
255
255
255
255
255
255
255
255
255
255
255
255
255
255
255
255
255
255
255
255
255
255
255
255
255
255
255
255
255
255
255
255
255
255
255
255
255
255
255
255
255
255
255
255
255
255
255
255
255
255
255
255
255
255
255
255
255
255
255
255
255
255
255
255
255
255
255
255
255
255
255
255
255
255
255
255
255
255
255
255
255
255
255
255
255
255
255
255
255
255
255
255
255
255
255
255
255
255
255
255
255
255
255
255
255
255
255
255
255
255
255
255
255
255
255
255
255
255
255
255
255
255
255
255
255
255
255
255
255
255
255
255
255
255
255
255
255
255
255
255
255
255
255
255
255
255
255
255
255
255
255
255
255
255
255
255
255
255
255
255
255
255
255
255
255
255
255
255
255
255
255
255
255
255
255
255
255
255
255
255
255
255
255
255
255
255
255
255
255
255
255
255
255
255
255
255
255
255
255
255
255
255
255
255
255
255
255
255
255
255
255
255
255
255
255
255
255
255
255
255
255
255
255
255
255
255
255
255
255
255
255
255
255
255
255
255
255
255
255
255
255
255
255
255
255
255
255
255
255
255
255
255
255
255
255
255
255
255
255
255
255
255
255
255
255
255
255
255
255
255
255
255
255
255
255
255
255
255
255
255
255
255
255
255
255
255
255
255
255
255
255
255
255
255
255
255
255
255
255
255
255
255
255
255
255
255
255
255
255
255
255
255
255
255
255
255
255
255
255
255
255
255
255
255
255
255
255
255
255
255
255
255
255
255
255
255
255
255
255
255
255
255
255
255
255
255
255
255
255
255
255
255
255
255
255
255
255
255
255
255
255
255
255
255
255
255
255
255
255
255
255
255
255
255
255
255
255
255
255
255
255
255
255
255
255
255
255
255
255
255
255
255
255
255
255
255
255
255
255
255
255
255
255
255
255
255
255
255
255
255
255
255
255
255
255
255
255
255
255
255
255
255
255
255
255
255
255
255
255
255
255
255
255
255
255
255
255
255
255
255
255
255
255
255
255
255
255
255
255
255
255
255
255
255
255
255
255
255
255
255
255
255
255
255
255
255
255
255
255
255
255
255
255
255
255
255
255
255
255
255
255
255
255
255
255
255
255
255
255
255
255
255
255
255
255
255
255
255
255
255
255
255
255
255
255
255
255
255
255
255
255
255
255
255
255
255
255
255
255
255
255
255
255
255
255
255
255
255
255
255
255
255
255
255
255
255
255
255
255
255
255
255
255
255
255
255
255
255
255
255
255
255
255
255
255
255
255
255
255
255
255
255
255
255
255
255
255
255
255
255
255
255
255
255
255
255
255
255
255
255
255
255
255
255
255
255
255
255
255
255
255
255
255
255
255
255
255
255
255
255
255
255
255
255
255
255
255
255
255
255
255
255
255
255
255
255
255
255
255
255
255
255
255
255
255
255
255
255
255
255
255
255
255
255
255
255
255
255
255
255
255
255
255
255
255
255
255
255
255
255
255
255
255
255
255
255
255
255
255
255
255
255
255
255
255
255
255
255
255
255
255
255
255
255
255
255
255
255
255
255
255
255
255
255
255
255
255
255
255
255
255
255
255
255
255
255
255
255
255
255
255
255
255
255
255
255
255
255
255
255
255
255
255
255
255
255
255
255
255
255
255
255
255
255
255
255
255
247
238
225
217
217
217
217
216
230
232
236
246
248
255
255
255
255
255
255
255
255
255
255
255
255
255
255
255
255
255
255
255
255
255
255
255
255
255
255
255
255
255
255
255
255
255
255
255
255
255
255
255
255
255
255
255
255
255
255
255
255
255
255
255
255
255
255
255
255
255
255
255
255
255
255
255
255
255
255
255
255
255
255
255
255
255
252
236
216
205
189
166
137
106
61
32
36
35
35
36
81
87
101
136
141
180
193
209
222
242
255
255
255
255
255
255
255
255
255
255
255
255
255
255
255
255
255
255
255
255
255
255
255
255
255
255
255
255
255
255
255
255
255
255
255
255
255
255
255
255
255
255
255
255
255
255
255
255
255
255
255
255
255
255
255
255
255
255
255
255
255
255
255
255
255
255
237
198
147
102
51
20
0
1
5
10
14
16
27
26
26
33
28
25
25
17
13
9
11
42
73
120
156
183
206
235
255
255
255
255
255
255
255
255
255
255
255
255
255
255
255
255
255
255
255
255
255
255
255
255
255
255
255
255
255
255
255
255
255
255
255
255
255
255
255
255
255
255
255
255
255
255
255
255
255
255
255
255
255
255
255
255
255
255
255
255
237
186
103
26
8
14
19
18
27
33
40
49
54
55
55
55
55
55
55
55
55
55
55
49
47
37
29
23
14
14
53
99
147
198
253
255
255
255
255
255
255
255
255
255
255
255
255
255
255
255
255
255
255
255
255
255
255
255
255
255
255
255
255
255
255
255
255
255
255
255
255
255
255
255
255
255
255
255
255
255
255
255
255
255
255
255
255
255
255
255
255
192
95
17
10
27
43
52
55
55
55
55
55
54
53
53
53
53
53
53
53
53
53
53
53
54
54
55
55
55
54
46
37
24
13
46
117
198
255
255
255
255
255
255
255
255
255
255
255
255
255
255
255
255
255
255
255
255
255
255
255
255
255
255
255
255
255
255
255
255
255
255
255
255
255
255
255
255
255
255
255
255
255
255
255
255
255
255
255
255
255
236
127
35
13
28
44
55
55
54
53
53
53
53
53
53
53
53
53
53
53
53
53
53
53
53
53
53
53
53
53
53
53
54
55
55
49
35
18
53
134
228
255
255
255
255
255
255
255
255
255
255
255
255
255
255
255
255
255
255
255
255
255
255
255
255
255
255
255
255
255
255
255
255
255
255
255
255
255
255
255
255
255
255
255
255
255
255
255
255
255
255
210
81
16
31
47
55
55
53
53
53
53
53
53
53
53
53
53
53
53
53
53
53
53
53
53
53
53
53
53
53
53
53
53
53
53
54
55
55
53
38
21
73
197
255
255
255
255
255
255
255
255
255
255
255
255
255
255
255
255
255
255
255
255
255
255
255
255
255
255
255
255
255
255
255
255
255
255
255
255
255
255
255
255
255
255
255
255
255
255
255
255
205
64
30
47
55
54
53
53
53
53
53
53
53
53
53
53
53
53
53
53
53
53
53
53
53
53
53
53
53
53
53
53
53
54
55
55
48
40
36
37
38
33
13
40
183
255
254
255
255
255
255
255
255
255
255
255
255
255
255
255
255
255
255
255
255
255
255
255
255
255
255
255
255
255
255
255
255
255
255
255
255
255
255
255
255
255
255
255
255
255
255
204
51
42
55
55
53
53
53
53
53
53
53
53
53
53
53
53
53
53
53
53
53
53
53
53
53
53
53
53
53
53
53
55
55
43
31
36
40
43
35
27
25
25
25
17
37
165
255
255
255
255
255
255
255
255
255
255
255
255
255
255
255
255
255
255
255
255
255
255
255
255
255
255
255
255
255
255
255
255
255
255
255
255
255
255
255
255
255
255
255
255
214
34
8
24
36
47
55
55
54
53
53
53
53
53
53
53
53
53
53
53
53
53
53
53
53
53
53
53
53
53
53
53
55
38
30
41
41
26
23
29
33
37
37
37
37
24
6
22
162
255
255
255
255
255
255
255
255
255
255
255
255
255
255
255
255
255
255
255
255
255
255
255
255
255
255
255
255
255
255
255
255
255
255
255
255
255
255
255
255
255
255
242
59
117
123
48
2
6
14
33
52
55
55
55
53
53
53
53
53
53
53
53
53
53
53
53
53
53
53
53
53
53
55
52
22
40
44
27
34
45
40
34
26
29
30
40
50
50
47
25
29
200
255
255
255
255
255
255
255
255
255
255
255
255
255
255
255
255
255
255
255
255
255
255
255
255
255
255
255
255
255
255
255
255
255
255
255
255
255
255
255
255
255
69
148
213
213
198
173
86
19
1
5
18
33
39
55
55
55
54
53
53
53
53
53
53
53
53
53
53
53
53
53
55
38
26
46
34
35
41
22
15
26
28
37
40
39
31
26
20
29
47
38
26
237
255
255
255
255
255
255
255
255
255
255
255
255
255
255
255
255
255
255
255
255
255
255
255
255
255
255
255
255
255
255
255
255
255
255
255
255
255
255
255
109
80
225
221
221
222
221
209
201
179
124
72
32
1
4
17
28
44
55
55
54
53
53
53
53
53
53
53
53
53
54
40
30
51
30
43
25
28
33
22
24
31
24
45
44
36
13
17
28
13
40
33
52
255
255
255
255
255
255
255
255
255
255
255
255
255
255
255
255
255
255
255
255
255
255
255
255
255
255
255
255
255
255
255
255
255
255
255
255
255
255
212
34
219
221
220
220
220
220
221
221
220
215
211
208
182
126
71
15
1
10
27
44
55
55
54
53
53
53
53
53
55
43
29
44
28
41
18
37
16
81
139
58
49
91
213
208
208
205
196
111
38
22
39
19
153
255
255
255
255
255
255
255
255
255
255
255
255
255
255
255
255
255
255
255
255
255
255
255
255
255
255
255
255
255
255
255
255
255
255
255
255
255
75
146
222
220
220
220
220
220
220
220
220
220
220
220
220
217
215
214
197
133
82
40
5
23
41
53
54
54
53
53
43
33
49
33
43
15
27
92
192
216
221
137
37
76
220
220
220
220
220
217
215
76
18
43
38
242
255
255
255
255
255
255
255
255
255
255
255
255
255
255
255
255
255
255
255
255
255
255
255
255
255
255
255
255
255
255
255
255
255
255
255
176
67
214
220
220
220
220
220
220
220
220
220
220
220
220
220
220
220
220
220
220
219
220
197
152
93
17
17
36
52
51
31
50
31
41
13
36
152
222
220
220
222
193
23
71
210
220
220
220
220
220
220
213
66
15
26
109
255
255
255
255
255
255
255
255
255
255
255
255
255
255
255
255
255
255
255
255
255
255
255
255
255
255
255
255
255
255
255
255
255
255
255
30
207
221
220
220
220
220
220
220
220
220
220
220
220
220
220
220
220
220
220
220
220
220
220
221
222
227
166
69
6
21
41
30
50
20
34
162
223
220
220
220
221
216
10
59
197
220
220
220
220
220
220
224
157
35
27
3
226
255
255
255
255
255
255
255
255
255
255
255
255
255
255
255
255
255
255
255
255
255
255
255
255
255
255
255
255
255
255
253
250
255
116
147
226
220
220
220
220
220
220
220
220
220
220
220
220
220
220
220
220
220
220
220
220
220
220
220
220
220
222
230
147
24
37
53
27
34
149
227
220
220
220
220
220
235
2
43
183
220
220
220
220
220
220
220
233
61
24
29
91
255
255
255
255
255
255
255
255
255
255
255
255
255
255
255
255
255
255
255
255
255
255
255
255
255
255
255
255
255
255
199
140
193
88
225
220
220
220
220
220
220
220
220
220
220
220
220
220
220
220
220
220
220
220
220
220
220
220
220
220
220
220
218
69
44
43
32
23
136
225
220
220
220
220
220
220
231
59
28
160
221
220
220
220
220
220
220
223
163
12
44
25
218
255
255
255
255
255
255
255
255
255
255
255
255
255
255
255
255
255
255
255
255
255
255
255
255
255
255
255
255
240
46
28
3
151
220
220
220
220
220
220
220
220
220
220
220
220
220
220
220
220
220
220
220
220
220
220
220
220
220
220
220
220
154
44
25
47
19
78
211
220
220
220
220
220
220
220
229
86
31
123
223
220
220
220
220
220
220
220
213
37
25
31
138
255
255
255
255
255
255
255
255
255
255
255
255
255
255
255
255
255
255
255
255
255
255
255
255
255
255
255
255
233
41
55
44
202
220
220
220
220
220
220
220
220
220
220
220
220
220
220
220
220
220
220
220
220
220
220
220
220
220
220
220
214
71
27
51
23
39
185
224
220
220
220
220
220
220
220
227
120
23
75
226
220
220
220
220
220
220
220
216
89
4
50
52
248
255
255
255
255
255
255
255
255
255
255
255
255
255
255
255
255
255
255
255
255
255
255
255
255
255
255
255
240
63
38
91
229
220
220
220
220
220
220
220
220
220
220
220
220
220
220
220
220
220
220
220
220
220
220
220
220
220
220
226
153
28
40
44
27
111
232
220
220
220
220
220
220
220
220
223
178
24
47
227
220
220
220
220
220
220
220
221
120
11
46
14
197
255
255
255
255
255
255
255
255
255
255
255
255
255
255
255
255
255
255
255
255
255
255
255
255
255
255
255
253
129
9
192
222
220
220
220
220
220
220
220
220
220
220
220
220
220
220
220
220
220
220
220
220
220
220
220
220
220
220
224
35
35
50
19
46
212
220
220
220
220
220
220
220
220
220
220
212
22
27
229
220
220
220
220
220
220
222
225
138
24
36
33
85
255
255
255
255
255
255
255
255
255
255
255
255
255
255
255
255
255
255
255
255
255
255
255
255
255
255
255
255
164
41
240
221
220
220
220
220
220
220
220
220
220
220
220
220
220
220
220
220
220
220
220
220
220
220
220
220
220
225
151
39
33
36
19
119
220
220
220
220
220
220
220
220
220
220
220
220
26
7
227
221
222
225
226
227
225
210
184
120
34
28
54
4
242
255
255
255
255
255
255
255
255
255
255
255
255
255
255
255
255
255
255
255
255
255
255
255
255
255
222
136
61
39
145
220
223
220
220
220
220
220
220
220
220
220
220
220
220
220
220
220
220
220
220
220
220
220
220
220
220
218
70
42
35
14
42
175
221
220
220
220
220
220
220
220
220
220
220
221
61
13
210
224
206
174
161
150
136
118
74
48
27
25
55
16
173
255
255
255
255
255
255
255
255
255
255
255
255
255
255
255
255
255
255
255
255
255
255
255
255
191
80
22
43
29
12
115
204
227
220
220
220
220
220
220
220
220
220
220
220
220
220
220
220
220
220
220
220
220
220
220
220
189
51
20
40
26
60
232
229
227
220
220
220
220
220
222
226
229
232
209
77
16
92
116
103
70
51
27
21
20
19
17
15
39
55
31
112
255
255
255
255
255
255
255
255
255
255
255
255
255
255
255
255
255
255
255
255
255
255
255
172
50
33
54
55
55
34
18
72
178
230
227
223
220
220
220
220
220
220
220
220
220
220
220
220
220
220
220
220
220
220
220
221
137
35
26
30
34
28
108
130
151
224
226
227
229
232
214
170
138
121
89
50
33
19
17
20
21
25
23
20
18
27
33
42
52
54
45
70
255
255
255
255
255
255
255
255
255
255
255
255
255
255
255
255
255
255
255
255
255
255
170
46
42
55
53
53
53
55
46
32
62
100
156
208
232
227
223
220
220
220
220
220
220
220
220
220
220
220
220
220
220
220
220
224
78
25
48
24
17
32
30
45
39
149
180
160
139
102
81
58
34
17
11
18
22
30
32
34
30
36
41
45
49
55
55
55
53
55
42
16
115
204
255
255
255
255
255
255
255
255
255
255
255
255
255
255
255
255
255
255
255
202
39
46
55
53
53
53
53
53
54
55
45
38
52
64
97
154
204
234
230
226
223
220
220
220
220
220
220
220
220
220
220
220
220
221
30
26
54
18
14
55
55
54
41
32
52
54
42
17
9
10
20
31
40
40
10
45
50
55
55
55
55
54
54
53
53
53
54
42
12
30
29
55
109
249
255
255
255
255
255
255
255
255
255
255
255
255
255
255
255
255
230
37
43
54
53
53
53
53
53
53
53
53
54
54
48
41
36
43
58
75
118
172
205
236
232
229
226
224
223
220
220
220
220
220
224
167
39
38
46
28
13
55
55
55
50
6
16
7
13
24
31
39
44
50
54
52
23
46
54
53
53
53
53
53
53
53
53
53
49
18
36
53
51
41
25
65
227
255
255
255
255
255
255
255
255
255
255
255
255
255
255
255
68
38
54
53
53
53
53
53
53
53
53
53
53
53
54
55
52
47
44
42
48
51
53
67
91
122
154
188
203
236
234
232
231
231
240
104
45
44
32
45
35
19
26
25
14
13
43
41
43
47
51
55
47
56
60
93
32
38
54
53
53
53
53
53
53
53
53
55
15
34
54
53
53
54
50
32
60
236
255
255
255
255
255
255
255
255
255
255
255
255
208
39
35
54
53
53
53
53
53
53
53
53
53
53
53
53
53
53
53
54
54
54
53
49
47
45
45
45
52
43
31
36
38
73
87
86
90
33
41
49
30
14
12
17
29
17
28
47
53
54
54
54
53
54
65
168
79
29
21
25
55
53
53
53
53
53
53
53
55
28
23
53
53
53
53
53
54
54
18
124
254
255
255
255
255
255
255
255
255
255
255
229
13
12
51
53
53
53
53
53
53
53
53
53
53
53
53
53
53
53
53
53
53
53
53
53
54
54
53
52
51
49
46
46
36
37
31
27
28
43
35
53
50
43
24
51
51
49
51
54
53
53
53
53
53
54
34
38
44
47
48
16
55
53
53
53
53
53
53
53
42
20
52
54
53
53
53
53
53
53
43
14
253
255
255
255
255
255
255
255
255
255
250
62
34
27
53
53
53
53
53
53
53
53
53
53
53
53
53
53
53
53
53
53
53
53
53
53
53
53
53
53
53
53
54
54
53
52
52
53
29
52
32
54
53
53
23
55
53
53
53
53
53
53
53
53
53
53
51
50
52
54
55
15
55
53
53
53
53
53
53
53
24
46
54
53
53
53
54
55
54
53
50
8
194
255
255
255
255
255
255
255
255
255
179
35
27
40
53
53
53
53
53
53
53
53
53
53
53
53
53
53
53
53
53
53
53
53
53
53
53
53
53
53
53
53
53
53
53
54
50
22
33
54
32
54
53
55
17
55
53
53
53
53
53
53
53
53
53
53
53
53
53
53
53
16
55
53
53
53
53
53
53
47
20
53
53
53
53
55
43
28
37
53
54
23
96
255
255
255
255
255
255
255
255
252
78
51
9
52
53
53
53
53
53
53
53
53
53
53
53
53
53
53
53
53
53
53
53
53
53
53
53
53
53
53
53
53
53
53
53
37
25
52
54
55
34
54
53
55
11
55
53
53
53
53
53
53
53
53
53
53
53
53
53
53
54
2
55
53
53
53
53
53
55
22
35
53
53
53
54
32
2
1
0
32
55
43
12
255
255
255
255
255
255
255
255
231
21
47
10
55
53
53
53
53
53
53
53
53
53
53
53
53
53
53
53
53
53
53
53
53
53
53
53
53
53
53
53
53
53
47
18
3
13
13
13
12
45
54
53
55
17
55
53
53
53
53
53
53
53
53
53
53
53
53
53
53
55
2
55
53
53
53
53
53
51
1
51
53
53
55
34
1
2
1
1
0
47
55
4
210
255
255
255
255
255
255
255
116
25
30
18
55
53
53
53
53
53
53
53
53
53
53
53
53
53
53
53
53
53
53
53
53
53
53
53
53
53
53
49
27
19
19
29
43
41
41
40
26
10
42
53
55
17
49
54
53
53
53
53
53
53
53
53
53
53
53
53
53
55
2
55
53
53
53
53
55
29
14
55
53
53
48
15
61
53
15
1
0
19
55
22
142
255
255
255
255
255
255
255
26
135
49
18
55
53
53
53
53
53
53
53
53
53
53
53
53
53
53
53
53
53
53
53
53
53
53
53
53
51
33
10
31
52
55
55
54
54
54
54
55
53
23
36
55
18
43
54
53
53
53
53
53
53
53
53
53
53
53
53
53
55
2
55
53
53
53
53
55
11
35
55
53
53
19
66
74
72
73
16
1
6
53
39
89
255
255
255
255
255
255
224
22
178
54
18
55
53
53
53
53
53
53
53
53
53
53
53
53
53
53
53
53
53
53
53
53
53
53
54
46
17
27
53
55
53
53
53
53
53
53
53
53
53
55
25
31
17
44
54
53
53
53
53
53
53
53
53
53
53
53
53
53
55
6
55
53
53
53
53
47
3
48
54
53
46
28
72
70
62
58
50
2
4
44
49
59
255
255
255
255
255
255
143
36
144
55
9
55
53
53
53
53
53
53
53
53
53
53
53
53
53
53
53
53
53
53
53
53
53
54
44
16
46
55
53
53
53
53
53
53
53
53
54
54
54
53
55
22
8
48
54
53
53
53
53
53
53
53
53
53
53
53
53
53
55
10
51
53
53
53
53
42
4
55
53
54
35
46
69
107
136
33
58
6
2
38
55
44
241
255
255
255
255
255
84
50
28
50
8
37
54
53
53
53
53
53
54
53
54
53
53
53
53
53
53
53
53
53
53
53
54
41
12
43
54
53
53
53
53
53
53
53
54
51
47
47
47
50
54
46
3
48
54
53
53
53
53
53
53
53
53
53
53
53
53
53
55
20
48
53
53
53
53
34
16
55
53
55
24
52
102
197
191
158
20
10
1
31
54
30
227
255
255
255
255
255
68
55
55
55
36
9
47
54
53
53
53
54
50
74
53
54
53
53
53
53
53
53
53
53
53
54
42
9
43
55
54
53
53
53
53
53
54
51
46
40
32
32
31
37
43
54
36
18
53
53
53
53
53
53
53
53
53
53
53
53
53
53
55
13
48
53
53
53
53
27
31
54
53
55
15
46
180
185
186
184
68
24
1
20
46
34
232
255
255
255
255
247
62
54
53
53
53
19
18
49
55
53
53
53
79
165
58
54
53
53
53
53
53
53
53
53
54
48
13
34
51
43
50
55
53
53
53
55
48
42
33
41
54
55
55
44
29
40
55
21
36
53
53
53
53
53
53
53
53
53
53
53
53
53
55
14
48
53
53
53
53
21
44
53
53
54
17
65
183
176
156
181
133
33
0
9
19
77
255
255
255
255
255
219
31
55
53
53
54
52
21
24
45
55
54
45
168
201
59
54
53
53
53
53
53
53
53
54
52
19
24
52
110
107
73
41
55
53
53
44
43
44
55
55
55
54
53
54
55
40
41
48
18
53
53
53
53
53
53
53
53
53
53
53
53
53
55
14
49
53
53
53
53
24
49
53
54
47
28
63
182
156
158
136
151
43
0
1
0
175
255
255
255
255
255
167
7
43
55
55
53
54
55
30
24
34
51
50
142
145
50
54
53
53
53
53
53
53
55
54
26
19
48
130
242
246
196
48
50
54
41
37
53
54
53
54
43
77
88
58
32
53
40
41
18
47
53
53
53
53
53
53
53
53
53
53
53
53
55
13
46
53
53
53
53
30
53
53
54
42
27
67
182
156
189
125
151
47
0
0
44
255
255
255
255
255
255
130
17
37
37
41
55
54
53
55
39
28
30
35
52
64
55
55
55
55
55
55
55
55
44
24
22
51
72
236
245
245
246
133
38
50
31
52
53
54
54
34
33
59
137
181
105
26
54
33
24
35
54
53
53
53
53
53
53
53
53
53
53
53
55
12
41
53
53
55
38
44
54
53
55
36
28
55
184
173
134
179
139
50
19
124
198
255
255
255
255
255
255
164
39
51
41
34
29
48
55
54
55
52
39
33
31
24
19
25
29
29
29
29
29
19
16
25
49
54
126
245
245
245
245
136
40
29
48
54
53
54
32
51
29
17
68
117
231
120
33
49
27
18
55
53
53
53
53
53
53
53
53
53
53
53
55
13
41
55
55
44
21
55
53
53
55
24
33
48
168
187
174
186
125
42
74
255
255
254
255
255
255
255
255
209
59
53
55
49
36
38
37
45
55
55
55
53
45
36
30
24
20
18
18
18
18
22
36
52
54
53
165
245
245
245
246
59
43
28
55
53
54
40
53
42
49
57
56
31
90
251
51
42
30
2
51
53
53
53
53
53
53
53
53
53
53
54
55
24
34
30
21
11
6
30
55
54
49
43
42
67
92
200
189
187
87
27
119
255
255
255
255
255
255
255
255
237
72
53
53
54
54
48
45
40
37
38
51
55
55
55
55
50
46
46
46
46
46
51
55
54
53
53
143
246
245
246
160
29
37
48
54
53
50
38
41
54
73
79
78
71
28
149
169
28
37
0
35
54
53
53
53
53
53
53
53
55
55
51
37
12
8
4
1
1
1
4
34
50
33
69
49
75
46
105
158
119
66
0
211
255
255
255
255
255
255
255
255
255
83
55
53
53
53
54
54
50
47
47
32
25
33
49
55
55
55
54
54
54
54
54
53
53
53
53
86
205
208
133
54
49
41
53
53
55
18
48
53
73
55
21
38
72
65
30
241
22
50
1
19
55
53
53
53
53
55
55
55
39
24
10
6
1
1
1
1
1
1
0
0
59
41
74
62
62
66
61
72
75
54
71
255
255
255
255
255
255
255
255
255
255
140
44
54
53
53
53
53
53
54
54
48
46
41
26
18
28
48
55
55
54
53
53
53
53
53
53
55
67
66
55
51
49
44
53
54
40
30
48
70
73
110
150
102
54
73
19
164
83
54
4
12
54
53
55
55
55
41
26
11
6
2
1
1
1
0
1
1
0
0
57
176
212
56
73
69
48
75
71
67
74
59
213
255
255
255
255
255
255
255
255
255
255
233
24
55
53
54
55
55
54
53
53
54
54
52
49
47
36
22
20
34
42
55
55
55
53
53
53
53
52
51
55
53
33
53
53
54
18
58
42
74
82
182
186
178
60
76
40
76
155
51
17
9
54
53
40
23
7
5
3
1
1
1
1
0
0
1
0
0
87
188
234
254
252
74
50
78
59
47
79
72
33
163
255
255
255
255
255
255
255
255
255
255
255
255
107
50
55
49
18
20
42
55
55
53
53
53
53
54
52
50
49
41
26
15
18
34
51
55
55
55
55
54
37
33
52
53
53
49
32
41
59
67
145
187
184
188
112
50
56
0
183
43
28
3
18
5
4
2
1
1
1
1
1
0
0
0
0
28
129
223
242
254
255
255
255
209
51
5
31
26
9
80
208
251
255
255
255
255
255
255
255
255
255
255
255
255
244
55
28
10
0
1
2
9
30
50
55
54
53
53
53
53
53
53
52
51
49
31
13
16
17
26
21
32
46
52
53
53
53
44
59
16
77
46
190
185
186
185
191
29
64
0
138
37
29
0
2
1
1
1
1
1
0
0
0
0
5
83
187
246
249
255
255
255
255
255
255
254
243
229
177
179
245
245
254
255
255
255
255
255
255
255
255
255
255
255
255
255
255
229
104
106
39
0
0
0
1
2
15
33
49
54
54
53
53
53
53
53
53
53
52
52
53
43
32
78
68
53
53
53
53
40
61
15
76
86
190
174
125
162
193
77
68
0
135
31
29
0
1
1
1
0
0
1
1
0
49
139
234
252
254
255
255
255
255
255
255
255
255
255
255
255
253
253
255
255
255
255
255
255
255
255
255
255
255
255
255
255
255
255
255
255
255
255
175
9
31
4
0
0
0
0
0
12
30
49
53
53
53
53
53
53
53
55
37
204
245
245
208
61
53
53
53
37
57
20
76
84
191
119
252
154
192
89
67
0
118
30
19
0
1
0
1
1
1
30
122
211
255
255
255
255
255
255
255
255
255
255
255
255
255
255
255
255
255
255
255
255
255
255
255
255
255
255
255
255
255
255
255
255
255
255
255
255
255
255
255
65
56
71
43
9
1
0
0
0
0
0
15
39
52
52
53
53
53
54
53
246
191
176
107
54
53
53
53
31
57
19
76
84
191
146
218
132
193
88
67
0
119
24
8
1
5
6
29
121
207
255
255
255
255
255
255
255
255
255
255
255
255
255
255
255
255
255
255
255
255
255
255
255
255
255
255
255
255
255
255
255
255
255
255
255
255
255
255
255
255
255
255
240
38
67
73
74
51
16
3
1
0
0
0
0
8
22
32
46
51
53
48
14
15
16
43
54
53
53
53
26
58
10
77
81
190
191
100
169
194
49
70
0
124
19
14
64
142
206
255
255
255
255
255
255
255
255
255
255
255
255
255
255
255
255
255
255
255
255
255
255
255
255
255
255
255
255
255
255
255
255
255
255
255
255
255
255
255
255
255
255
255
255
255
255
228
85
69
68
68
69
54
21
18
15
7
0
0
0
0
0
6
32
52
55
55
55
54
53
53
53
54
21
60
21
76
54
187
184
189
186
179
29
61
0
201
169
233
255
255
255
255
255
255
255
255
255
255
255
255
255
255
255
255
255
255
255
255
255
255
255
255
255
255
255
255
255
255
255
255
255
255
255
255
255
255
255
255
255
255
255
255
255
255
255
255
255
255
255
178
67
52
29
35
59
212
179
111
41
22
8
0
0
0
0
27
54
53
53
53
53
53
54
54
17
65
32
59
57
124
189
186
183
101
72
42
28
255
255
255
255
255
255
255
255
255
255
255
255
255
255
255
255
255
255
255
255
255
255
255
255
255
255
255
255
255
255
255
255
255
255
255
255
255
255
255
255
255
255
255
255
255
255
255
255
255
255
255
255
255
255
255
255
227
158
187
255
255
255
255
255
191
115
58
31
13
0
0
39
54
54
54
52
50
48
42
20
71
63
44
77
54
166
166
126
59
74
23
142
255
255
255
255
255
255
255
255
255
255
255
255
255
255
255
255
255
255
255
255
255
255
255
255
255
255
255
255
255
255
255
255
255
255
255
255
255
255
255
255
255
255
255
255
255
255
255
255
255
255
255
255
255
255
255
255
255
255
255
255
255
255
255
255
255
255
255
202
133
79
47
43
55
54
56
59
73
28
26
58
74
72
44
73
70
72
80
56
76
65
36
236
255
255
255
255
255
255
255
255
255
255
255
255
255
255
255
255
255
255
255
255
255
255
255
255
255
255
255
255
255
255
255
255
255
255
255
255
255
255
255
255
255
255
255
255
255
255
255
255
255
255
255
255
255
255
255
255
255
255
255
255
255
255
255
255
255
255
255
255
255
255
227
172
136
134
138
169
222
109
55
76
74
73
57
60
75
74
74
76
58
38
140
255
255
255
255
255
255
255
255
255
255
255
255
255
255
255
255
255
255
255
255
255
255
255
255
255
255
255
255
255
255
255
255
255
255
255
255
255
255
255
255
255
255
255
255
255
255
255
255
255
255
255
255
255
255
255
255
255
255
255
255
255
255
255
255
255
255
255
255
255
255
255
255
255
255
255
255
255
255
236
82
55
61
72
71
53
63
58
45
42
57
130
255
255
255
255
255
255
255
255
255
255
255
255
255
255
255
255
255
255
255
255
255
255
255
255
255
255
255
255
255
255
255
255
255
255
255
255
255
255
255
255
255
255
255
255
255
255
255
255
255
255
255
255
255
255
255
255
255
255
255
255
255
255
255
255
255
255
255
255
255
255
255
255
255
255
255
255
255
255
255
255
232
133
97
78
61
49
49
58
85
113
186
255
255
255
255
255
255
255
255
255
255
255
255
255
255
255
255
255
255
255
255
255
255
255
255
255
255
255
255
255
255
255
255
255
255
255
255
255
255
255
255
255
255
255
255
255
255
255
255
255
255
255
255
255
255
255
255
255
255
255
255
255
255
255
255
255
255
255
255
255
255
255
255
255
255
255
255
255
255
255
255
255
255
255
217
179
159
149
168
182
232
255
255
255
255
255
255
255
255
255
255
255
255
255
255
255
255
255
255
255
255
255
255
255
255
255
255
255
255
255
255
255
255
255
255
255
255
255
255
255
255
255
255
255
255
255
255
255
255
255
255
255
255
255
255
255
255
255
255
255
255
255
255
255
255
255
255
255
255
255
255
255
255
255
255
255
255
255
255
255
255
255
255
255
255
255
255
255
255
255
255
255
255
255
255
255
255
255
255
255
255
255
255
255
255
255
255
255
255
255
255
255
255
255
255
255
255
255
255
255
255
255
255
255
255
255
255
255
255
255
255
255
255
255
255
255
255
255
255
255
255
255
255
255
255
255
255
255
255
255
255
255
255
255
255
255
255
255
255
255
255
255
255
255
255
255
255
255
255
255
255
255
255
255
255
255
255
255
255
255
255
255
255
255
255
255
255
255
255
255
255
255
255
255
255
255
255
255
255
255
255
255
255
255
255
255
255
255
255
255
255
255
255
255
255
255
255
255
255
255
255
255
255
255
255
255
255
255
255
255
255
255
255
255
255
255
255
255
255
255
255
255
255
255
255
255
255
255
255
255
255
255
255
255
255
255
255
255
255
255
255
255
255
255
255
255
255
255
255
255
255
255
255
255
255
255
255
255
255
255
255
255
255
255
255
255
255
255
255
255
255
255
255
255
255
255
255
255
255
255
255
255
255
255
255
255
255
255
255
255
255
255
255
255
255
255
255
255
255
255
255
255
255
255
255
255
255
255
255
255
255
255
255
255
255
255
255
255
255
255
255
255
255
255
255
255
255
255
255
255
255
255
255
255
255
255
255
255
255
255
255
255
255
255
255
255
255
255
255
255
255
255
255
255
255
255
255
255
255
255
255
255
255
255
255
255
255
255
255
255
255
255
255
255
255
255
255
255
255
255
255
255
255
255
255
255
255
255
255
255
255
255
255
255
255
255
255
255
255
255
255
255
255
255
255
255
255
255
255
255
255
255
255
255
255
255
255
255
255
255
255
255
255
255
255
255
255
255
255
255
255
255
255
255
255
255
255
255
255
255
255
255
255
255
255
255
255
255
255
255
255
255
255
255
255
255
255
255
255
255
255
255
255
255
255
255
255
255
255
255
255
255
255
255
255
255
255
255
255
255
255
255
255
255
255
255
255
255
255
255
255
255
255
255
255
255
255
255
255
255
255
255
255
255
255
255
255
255
255
255
255
255
255
255
255
255
255
255
255
255
255
255
255
255
255
255
255
255
255
255
255
255
255
255
255
255
255
255
255
255
255
255
255
255
255
255
255
255
255
255
255
255
255
255
255
255
255
255
255
255
255
255
255
255
255
255
255
255
255
255
255
255
255
255
255
255
255
255
255
255
255
255
255
255
255
255
255
255
255
255
255
255
255
255
255
255
255
255
255
255
255
255
255
255
255
255
255
255
255
255
255
255
255
255
255
255
255
255
255
255
255
255
255
255
255
255
255
255
255
255
255
255
255
255
255
255
255
255
255
255
255
255
255
255
255
255
255
255
255
255
255
255
255
255
255
255
255
255
255
255
255
255
255
255
255
255
255
255
255
255
255
255
255
255
255
255
255
255
255
255
255
255
255
255
255
255
255
255
255
255
255
255
255
255
255
255
255
255
255
255
255
255
255
255
255
255
255
255
255
255
255
255
255
255
255
255
255
255
255
255
255
255
255
255
255
255
255
255
255
255
255
255
255
255
255
255
255
255
255
255
255
255
255
255
255
255
255
255
255
255
255
255
255
255
255
255
255
255
255
255
255
255
255
255
255
255
255
255
255
255
255
255
255
255
255
255
255
255
255
255
255
255
255
255
255
255
255
255
255
255
255
255
255
255
255
255
255
255
255
255
255
255
255
255
255
255
255
255
255
255
255
255
255
255
255
255
255
255
255
255
255
255
255
255
255
255
255
255
255
255
255
255
255
255
255
255
255
255
255
255
255
255
255
255
255
255
255
255
255
255
255
255
255
255
255
255
255
255
255
255
255
255
255
255
255
255
255
255
255
255
255
255
255
255
255
255
255
255
255
255
255
255
255
255
255
255
255
255
255
255
255
255
255
255
255
255
255
255
255
255
255
255
255
255
255
255
255
255
255
255
255
255
255
255
255
255
255
255
255
255
255
255
255
255
255
255
255
255
255
255
255
255
255
255
255
255
255
255
255
255
255
255
255
255
255
255
255
255
255
255
255
255
255
255
255
255
255
255
255
255
255
255
255
255
255
255
255
255
255
255
255
255
255
255
255
255
255
255
255
255
255
255
255
255
255
255
255
255
255
255
255
255
255
255
255
255
255
255
255
255
255
255
255
255
255
255
255
255
255
255
255
255
255
255
255
255
255
255
255
255
255
255
255
255
255
255
255
255
255
255
255
255
255
255
255
255
255
255
255
255
255
255
255
255
255
255
255
255
255
255
255
255
255
255
255
255
255
255
255
255
255
255
255
255
255
255
255
255
255
255
255
255
255
255
255
255
255
255
255
255
255
255
255
255
255
255
255
255
255
255
255
255
255
255
255
255
255
255
255
255
255
255
255
255
255
255
255
255
255
255
255
255
255
255
255
255
255
255
255
255
255
255
255
255
255
255
255
255
255
255
255
255
255
255
255
255
255
255
255
255
255
255
255
255
255
255
255
255
255
255
255
255
255
255
255
255
255
255
255
255
255
255
255
255
255
255
255
255
255
255
255
255
255
255
255
255
255
255
255
255
255
255
255
255
255
255
255
255
255
255
255
255
255
255
255
255
255
255
255
255
255
255
255
255
255
255
255
255
255
255
255
255
255
255
255
255
255
255
255
255
255
255
255
255
255
255
255
255
255
255
255
255
255
255
255
255
255
255
255
255
255
255
255
255
255
255
255
255
255
255
255
255
255
255
255
255
255
255
255
255
255
255
255
255
255
255
255
255
255
255
255
255
255
255
255
255
255
255
255
255
255
255
255
255
255
255
255
255
255
255
255
255
255
255
255
255
255
255
255
255
255
255
255
255
255
255
255
255
255
255
255
255
255
255
255
255
255
255
255
255
255
255
255
255
255
255
255
255
255
255
255
255
255
255
255
255
255
255
255
255
255
255
255
255
255
255
255
255
255
255
255
255
255
255
255
255
255
255
255
255
255
255
255
255
255
255
255
255
255
255
255
255
255
255
255
255
255
255
255
255
255
255
255
255
255
255
255
255
255
255
255
255
255
255
255
255
255
255
255
255
255
255
255
255
255
255
255
255
255
255
255
255
255
255
255
255
255
255
255
255
255
255
255
255
255
255
255
255
255
255
255
255
255
255
255
255
255
255
255
255
255
255
255
255
255
255
255
255
255
255
255
255
255
255
255
255
255
255
255
255
255
255
255
255
255
255
255
255
255
255
255
255
255
255
255
255
255
255
255
255
255
255
255
255
255
255
255
255
255
255
255
255
255
255
255
255
255
255
255
255
255
255
255
255
255
255
255
255
255
255
255
255
255
255
255
255
255
255
255
255
255
255
255
255
255
255
255
255
255
255
255
255
255
255
255
255
255
255
255
255
255
255
255
255
255
255
255
255
255
255
255
255
255
255
255
255
255
255
255
255
255
255
255
255
255
255
255
255
255
255
255
255
255
255
255
255
255
255
255
255
255
255
255
255
255
255
255
255
255
255
255
255
255
255
255
255
255
255
255
255
255
255
255
255
255
255
255
255
255
255
255
255
255
255
255
255
255
255
255
255
255
255
255
255
255
255
255
255
255
255
255
255
255
255
255
255
255
255
255
255
255
255
255
255
255
255
255
255
255
255
255
255
255
255
255
255
255
255
255
255
255
255
255
255
255
255
255
255
255
255
255
255
255
255
255
255
255
255
255
255
255
255
255
255
255
255
255
255
255
255
255
255
255
255
255
255
255
255
255
255
255
255
255
255
255
255
255
255
255
255
255
255
255
255
255
255
255
255
255
255
255
255
255
255
255
255
255
255
255
255
255
255
255
255
255
255
255
255
255
255
255
255
255
255
255
255
255
255
255
255
255
255
255
255
255
255
255
255
255
255
255
255
255
255
255
255
255
255
255
255
255
255
255
255
255
255
255
255
255
255
255
255
255
255
255
255
255
255
255
255
255
255
255
255
255
255
255
255
255
255
255
255
255
255
255
255
255
255
255
255
255
255
255
255
255
255
255
255
255
255
255
255
255
255
255
255
255
255
255
255
255
255
255
255
255
255
255
255
255
255
255
255
255
255
255
255
255
255
255
255
255
255
255
255
255
255
255
255
255
255
255
255
255
255
255
255
255
