P2
# CREATOR: GIMP PNM Filter Version 1.1
92 112
255
1
4
7
9
60
51
8
25
36
13
24
72
171
208
203
186
128
90
48
40
32
30
22
46
22
10
10
16
123
14
27
95
113
27
15
12
27
3
8
4
12
29
42
10
11
24
11
10
10
27
16
11
7
22
13
8
7
7
6
5
5
5
5
5
6
6
7
8
2
10
11
6
7
3
3
7
3
13
15
8
11
9
6
5
5
5
5
5
5
5
5
5
2
8
3
28
45
0
20
75
24
52
118
118
107
119
104
136
114
89
114
66
32
39
42
26
7
9
9
2
106
9
42
64
50
32
6
6
18
4
6
5
8
82
23
9
7
36
9
7
4
43
0
23
2
9
7
2
7
6
5
5
5
5
5
5
6
4
3
1
7
7
6
4
9
5
5
9
7
6
5
6
7
5
4
8
5
5
5
5
5
5
5
5
2
6
6
17
13
20
54
74
124
82
114
70
107
166
156
156
150
136
132
130
132
135
74
22
4
7
7
4
90
10
54
51
41
42
8
14
7
4
3
7
15
92
2
14
0
49
7
7
6
46
7
41
7
2
8
4
6
5
4
4
3
3
3
3
3
6
12
16
8
8
13
23
12
9
9
13
12
15
12
3
17
24
4
8
3
3
3
3
3
3
3
3
2
3
7
17
33
72
114
65
102
113
200
228
226
222
198
215
224
217
229
205
172
131
80
89
31
10
3
11
61
40
32
42
24
32
12
5
5
5
5
4
25
69
0
21
0
58
11
9
10
24
7
16
6
5
6
5
5
5
5
5
2
4
6
8
13
11
8
6
7
7
9
12
6
6
6
6
6
7
7
5
9
13
8
9
2
4
4
5
2
3
4
5
3
5
22
27
73
174
65
51
198
236
244
255
251
232
226
238
232
198
152
108
61
66
36
9
8
10
9
5
18
71
10
36
17
29
5
5
5
5
5
4
33
70
0
14
12
32
10
9
5
30
14
3
5
5
5
5
5
5
5
5
5
6
6
8
11
9
6
4
2
2
3
4
5
5
5
5
5
5
5
5
7
7
8
9
3
4
4
5
5
5
5
4
0
31
60
112
164
74
184
246
236
226
208
193
150
143
210
223
197
126
107
92
85
76
21
11
8
1
3
8
24
37
6
17
8
15
9
10
5
5
5
5
30
54
1
20
5
43
3
9
4
33
17
2
5
5
5
5
5
5
5
5
10
8
6
6
5
5
5
6
4
4
5
6
5
5
5
5
5
5
5
5
5
6
6
7
3
4
5
5
11
8
5
3
30
98
155
199
151
164
237
248
218
111
116
157
220
222
198
102
41
22
8
15
25
58
70
26
11
7
8
29
19
15
3
21
3
3
20
9
6
5
5
5
24
44
5
5
0
47
17
8
4
27
21
7
4
4
5
5
5
3
3
9
8
7
5
4
3
4
5
6
8
8
8
8
4
5
4
4
5
6
4
6
5
5
5
5
3
4
4
4
10
13
5
3
91
173
229
230
193
118
161
233
220
208
155
182
146
84
57
44
29
21
11
15
12
14
46
16
12
8
14
53
5
17
6
37
3
7
13
7
6
6
5
4
7
46
15
6
0
37
17
8
5
20
30
5
4
5
5
6
6
2
3
12
3
4
4
4
4
5
5
6
7
7
6
5
4
5
5
6
6
15
5
10
6
6
5
4
4
4
4
4
6
7
6
0
144
189
205
248
253
239
223
241
187
84
161
85
52
18
19
5
23
13
10
20
8
17
13
17
5
19
13
31
5
5
20
2
4
10
3
14
6
6
5
4
3
42
14
5
1
33
12
3
7
11
38
1
5
5
6
7
8
11
10
6
4
4
4
4
5
5
6
7
6
6
5
4
3
6
9
12
15
12
10
17
6
6
5
4
4
4
4
4
5
3
17
20
224
238
225
248
248
247
217
130
51
47
21
28
19
16
9
21
20
24
9
6
4
10
8
54
9
9
51
14
4
9
8
11
7
4
5
14
6
6
5
4
3
14
8
4
4
30
8
0
6
4
40
3
6
6
7
7
10
16
14
3
4
4
5
4
6
6
8
7
5
5
4
4
4
7
12
15
40
43
61
32
5
6
6
7
5
4
4
4
2
5
6
21
212
168
143
198
230
204
155
100
42
41
18
8
30
47
34
8
19
12
27
11
5
10
12
29
9
6
40
12
6
5
5
4
5
5
5
3
20
8
5
5
6
5
7
8
3
22
7
13
7
8
7
11
7
7
7
7
22
1
11
4
7
3
12
8
5
14
13
3
5
5
5
5
6
12
5
11
12
9
4
3
6
7
16
27
11
9
4
3
3
4
4
4
118
63
40
69
155
140
109
98
12
6
11
10
21
63
12
14
39
52
30
13
9
15
10
16
20
12
13
15
8
7
7
6
5
5
5
5
10
14
4
8
5
6
7
8
4
9
24
19
5
7
9
10
7
7
7
7
12
9
4
6
8
4
12
8
7
7
9
4
5
5
5
5
6
6
8
7
6
6
5
4
8
2
2
4
8
7
5
3
3
4
4
5
13
14
111
121
65
25
0
5
1
4
12
10
17
14
19
25
27
85
54
25
32
37
23
16
26
29
32
19
7
7
7
8
5
5
5
5
7
10
15
5
6
6
7
8
10
5
16
5
5
6
8
9
7
7
7
7
6
5
8
5
8
4
13
9
7
5
3
5
5
5
5
5
5
1
9
4
6
7
10
11
14
8
6
8
3
4
5
7
2
4
5
5
40
24
31
43
35
8
27
4
5
5
6
7
10
7
18
22
64
91
71
91
52
45
42
51
69
76
67
67
37
36
15
8
4
7
8
7
5
7
7
9
3
4
6
9
6
4
14
12
7
6
5
5
7
7
7
7
6
6
6
6
5
6
8
8
9
6
5
8
6
6
5
3
7
7
7
7
4
11
5
6
25
20
7
9
6
8
8
5
9
4
3
7
48
30
8
1
69
3
2
9
5
6
7
7
8
12
19
87
54
68
111
141
71
78
92
97
127
154
135
137
126
113
57
35
17
11
6
5
7
8
10
11
7
8
7
8
7
8
11
11
7
7
6
5
7
7
7
7
7
7
7
7
7
6
4
2
8
7
13
7
12
9
8
9
7
7
7
7
10
6
21
26
21
17
7
14
41
38
26
12
6
3
2
7
3
4
8
8
7
10
4
6
6
7
8
7
10
40
43
21
59
185
226
181
164
167
180
186
197
207
195
209
183
174
133
92
58
36
15
9
7
9
11
12
12
10
7
5
10
13
5
8
8
7
7
6
7
7
6
6
10
9
9
9
8
10
13
15
19
24
52
46
33
21
9
6
7
7
7
7
6
10
13
11
4
9
6
14
34
38
38
36
19
10
5
4
2
4
5
6
4
4
4
3
7
11
10
25
12
33
91
90
201
255
240
238
224
220
211
207
227
226
226
230
226
198
190
155
126
88
55
36
18
16
12
25
20
20
14
7
9
10
9
11
11
13
13
11
7
10
15
19
7
10
17
19
21
37
39
57
75
120
117
69
53
20
10
12
10
7
8
2
2
7
8
8
7
6
4
11
2
6
17
9
9
5
4
7
2
3
5
6
5
4
4
3
3
10
15
71
79
165
131
78
220
247
251
254
249
247
246
244
240
240
240
240
242
220
201
186
172
128
107
76
59
45
46
46
42
41
34
26
26
23
21
19
16
24
24
16
18
23
29
32
51
50
40
39
64
73
121
129
129
158
136
132
98
68
62
54
49
35
17
7
12
5
7
2
8
10
8
3
6
6
10
4
8
4
4
8
2
4
5
6
5
5
4
3
3
2
23
36
65
149
158
131
233
246
254
254
254
252
247
243
254
254
254
254
247
239
218
204
178
154
133
108
87
82
87
85
73
73
67
58
48
47
44
42
45
45
45
44
53
61
74
83
85
88
103
106
128
129
153
172
176
185
154
150
167
146
185
195
180
169
179
135
118
85
42
23
4
3
4
8
6
6
3
9
9
5
5
9
2
3
5
5
5
4
4
3
3
9
30
45
88
55
159
227
233
242
253
254
254
255
255
255
253
253
253
253
247
242
230
199
155
163
148
144
120
121
108
106
97
96
90
83
80
77
77
80
90
100
103
98
92
96
113
125
127
127
125
132
138
159
189
189
203
196
197
214
232
229
231
234
226
243
244
248
228
194
173
99
52
19
6
10
5
7
4
16
10
14
5
9
2
3
3
4
4
4
4
4
6
7
23
33
51
85
181
247
243
247
254
255
255
255
255
255
255
255
254
253
248
235
216
188
176
167
151
135
140
129
120
118
119
120
116
108
102
95
97
108
116
129
136
132
126
111
122
134
133
149
152
159
167
177
178
192
195
209
213
226
234
238
243
246
255
254
254
255
251
226
204
193
131
95
35
16
6
5
5
3
7
18
5
10
2
3
4
4
4
4
4
4
6
20
51
72
54
154
236
247
255
255
255
255
255
255
255
255
255
254
254
253
248
243
220
199
193
173
163
144
150
141
136
136
134
140
135
121
135
130
127
128
125
134
140
144
143
141
142
153
166
170
163
167
167
173
177
194
198
216
214
231
241
243
249
252
254
255
255
255
254
253
222
215
197
169
52
22
7
6
5
5
6
5
6
3
2
3
4
4
4
4
4
4
1
18
50
46
80
149
232
253
255
255
255
254
255
255
255
255
255
255
253
254
235
236
209
193
192
177
172
140
146
138
135
136
140
135
131
128
130
135
139
139
142
140
142
145
141
150
147
158
162
164
156
162
162
179
181
188
199
211
227
237
246
249
254
255
255
255
255
255
255
247
254
216
229
202
91
23
7
7
6
5
5
4
2
17
2
7
4
5
4
4
4
4
8
39
91
97
77
226
250
255
255
255
255
255
255
255
255
255
253
255
252
246
240
218
211
202
183
164
157
135
135
135
134
132
136
134
132
130
131
131
133
136
132
137
144
149
147
150
154
156
154
161
159
169
152
176
191
187
200
214
226
229
242
250
254
254
254
254
255
255
255
255
253
254
225
207
109
41
13
3
5
3
5
5
5
4
18
5
8
5
4
4
4
3
5
28
75
72
116
236
253
254
255
255
255
255
255
255
255
255
252
253
247
239
232
212
202
188
181
167
140
139
135
136
135
135
137
135
133
132
131
121
120
129
128
131
135
139
144
148
155
159
164
162
159
157
160
166
178
186
200
209
222
231
239
246
251
250
254
254
255
255
255
255
253
253
250
231
182
92
39
7
6
3
5
5
5
5
24
23
9
2
2
2
2
2
8
12
96
59
138
237
254
255
255
255
255
255
255
255
255
255
251
250
242
232
214
199
195
188
174
164
142
130
130
130
129
128
135
133
131
129
123
118
115
114
125
125
126
126
133
139
149
155
156
149
156
148
157
163
172
177
194
197
210
223
236
243
247
246
253
253
254
254
255
255
254
253
252
233
230
177
59
8
7
3
5
5
5
5
22
14
4
3
2
2
2
2
6
7
75
90
158
251
255
252
255
255
255
255
255
255
255
255
252
245
233
224
202
194
196
182
166
153
137
126
130
124
130
124
126
125
124
124
116
117
120
106
114
118
120
124
124
132
141
143
146
144
147
152
155
169
162
175
181
189
208
229
231
236
244
250
249
250
251
251
249
251
255
255
252
245
231
241
151
48
16
15
6
7
7
6
21
4
2
5
2
2
2
2
5
6
68
59
200
252
251
255
255
255
255
255
255
255
255
255
246
238
225
217
203
190
181
172
161
144
128
121
133
116
114
124
118
117
115
113
118
102
107
113
116
112
121
124
128
121
136
139
142
141
146
154
153
169
170
181
183
192
209
221
226
231
239
246
245
246
247
247
248
250
253
255
255
254
237
222
215
145
58
34
16
5
0
5
41
5
4
3
2
2
2
2
1
5
62
84
223
248
245
254
255
255
255
255
255
255
255
255
246
238
226
219
202
190
175
180
164
141
124
126
118
121
109
106
105
104
102
101
101
100
109
103
112
115
128
106
97
114
125
133
137
138
145
155
164
174
178
176
188
199
209
211
221
226
234
240
241
241
242
243
246
248
251
254
254
254
255
240
229
155
72
28
14
6
3
6
15
1
3
3
2
3
3
3
3
16
29
130
216
239
242
249
255
255
255
255
255
255
255
253
245
234
218
206
199
193
186
189
169
145
133
131
124
119
110
113
105
105
105
105
106
102
107
103
98
107
129
135
126
120
121
131
136
138
149
150
160
172
185
187
189
199
205
204
218
225
234
236
240
240
241
241
241
248
251
248
254
253
254
249
243
205
90
22
5
6
6
6
1
2
2
2
3
3
4
5
8
22
72
149
204
229
240
249
255
255
255
255
254
255
255
251
246
237
223
214
204
199
190
184
174
144
134
133
118
114
109
105
105
105
106
106
105
100
111
106
101
103
112
122
130
119
126
131
135
131
140
147
154
168
181
185
188
196
203
205
218
228
236
238
239
240
241
241
240
245
248
245
251
251
251
251
249
226
123
25
5
5
5
5
2
2
2
2
4
5
5
6
9
7
88
104
209
231
243
253
255
255
255
255
253
255
255
250
246
235
218
208
200
199
196
195
175
151
144
139
126
121
113
105
107
107
108
109
106
110
97
101
109
107
113
120
119
124
124
130
124
137
140
139
153
166
179
185
183
195
205
208
221
230
238
239
238
239
239
240
240
239
242
246
247
247
247
247
244
235
155
32
3
4
4
4
2
2
3
5
5
5
5
7
4
5
39
106
223
242
247
253
255
255
255
255
254
255
254
250
245
239
229
221
206
203
196
190
177
165
151
136
130
125
112
106
110
109
108
109
103
105
101
104
114
111
113
115
110
126
129
136
131
140
138
148
158
170
184
189
185
196
207
210
221
230
237
240
238
239
239
239
239
236
238
245
244
245
244
245
241
230
168
38
2
3
3
3
0
0
6
15
8
4
5
11
5
8
27
129
229
251
247
251
255
255
255
255
255
255
255
255
251
253
244
229
211
204
196
191
182
176
154
145
135
134
118
116
112
109
109
106
111
105
103
106
112
112
122
117
113
127
134
129
133
139
139
149
159
171
184
196
203
209
214
213
222
225
232
236
239
238
238
237
236
237
239
239
241
242
243
243
245
226
189
41
3
4
4
4
2
0
3
9
7
8
9
8
8
14
26
135
236
254
249
253
255
255
255
255
255
255
255
255
255
255
252
240
228
209
195
196
189
178
157
143
132
127
120
114
108
111
110
113
101
100
105
111
118
112
122
123
125
129
131
130
136
143
139
144
164
176
183
195
207
215
224
225
220
225
232
236
234
234
233
232
235
236
238
239
235
239
242
245
248
231
200
40
4
4
4
4
3
0
0
4
5
11
12
7
7
16
27
146
242
255
251
255
255
255
255
255
255
255
255
255
251
255
252
241
236
220
202
192
179
159
150
134
128
120
125
117
109
105
103
99
103
100
102
106
120
108
118
124
131
129
131
134
148
138
131
150
166
184
178
197
203
214
225
229
219
224
231
235
237
237
236
235
234
236
237
239
231
236
242
246
238
237
192
37
3
4
4
4
3
0
3
8
7
17
15
9
8
10
36
182
252
254
255
253
255
255
255
255
255
255
255
255
252
255
254
244
236
203
196
179
159
143
154
126
128
116
104
101
103
102
100
98
97
96
105
96
113
103
100
100
123
126
120
130
139
140
139
139
156
167
183
189
207
214
212
220
219
225
232
237
242
244
242
237
233
234
236
237
235
233
237
244
243
234
209
50
5
5
5
5
0
0
6
15
14
22
74
14
18
13
50
201
252
255
255
254
255
255
255
255
255
255
255
255
254
255
250
239
210
192
177
155
136
122
126
105
102
97
96
100
95
93
88
84
92
94
104
98
92
95
97
102
101
113
102
119
120
132
121
132
147
157
176
193
205
214
212
220
220
226
233
238
240
243
244
240
240
239
239
238
237
233
235
240
238
230
203
45
5
5
5
5
4
1
5
11
17
30
85
39
59
36
70
220
252
255
255
254
255
255
255
255
255
255
255
255
255
247
220
194
186
161
134
120
108
88
84
78
81
76
78
82
89
83
76
69
79
82
96
90
91
87
90
98
97
98
107
115
107
116
116
123
151
151
167
188
198
207
204
212
214
220
227
231
238
244
247
244
248
245
242
239
240
234
233
236
234
226
198
40
5
5
5
5
4
4
4
4
21
29
34
50
114
80
141
239
255
255
255
255
255
255
255
254
252
253
250
232
213
191
154
120
90
84
74
68
68
65
61
59
60
63
55
58
66
70
61
65
71
74
85
95
86
79
86
87
83
87
96
102
97
99
106
118
130
141
147
160
180
185
193
198
211
204
217
224
228
233
233
245
248
244
251
240
242
236
232
232
229
224
218
43
5
5
5
5
4
4
4
3
24
46
29
66
99
123
201
250
255
255
255
255
255
255
254
254
251
237
220
185
116
62
50
33
27
23
19
14
14
18
26
30
46
47
37
38
44
47
45
48
52
55
66
77
74
64
72
74
70
75
81
85
85
92
102
101
96
115
107
126
127
141
161
175
177
172
184
185
184
201
211
226
239
244
245
243
242
237
227
220
211
224
230
77
3
5
5
5
4
4
4
3
23
67
62
112
134
164
229
254
255
255
255
255
255
254
253
253
248
215
186
131
66
49
31
11
11
10
7
6
7
7
8
8
12
19
17
25
23
23
32
30
45
47
58
70
66
57
64
65
66
68
71
74
72
69
85
77
76
78
69
71
55
60
66
71
74
51
60
74
91
92
105
140
165
193
195
216
213
223
225
218
220
226
222
107
2
5
5
5
4
4
4
4
24
104
138
162
170
194
247
255
255
255
255
255
254
254
254
253
241
212
187
130
97
39
37
20
8
8
8
8
8
8
8
8
5
8
6
8
13
13
23
23
31
35
46
55
49
44
50
53
56
59
55
57
57
46
49
44
26
19
18
10
9
8
7
7
3
8
14
17
21
37
58
99
137
160
167
183
185
202
212
217
224
225
219
142
0
4
7
4
5
5
5
5
22
77
168
199
199
210
254
251
255
255
255
255
255
255
250
243
232
191
143
83
45
20
20
15
8
8
7
6
7
7
7
7
7
7
7
7
5
9
13
15
18
24
33
39
31
35
43
51
50
48
49
47
35
30
22
16
13
12
10
9
9
8
7
7
7
9
13
36
45
78
107
151
175
194
199
212
220
227
225
234
231
233
225
161
1
2
9
3
6
6
6
3
68
51
142
202
178
210
255
251
255
255
255
255
253
254
240
221
194
163
106
51
11
7
9
3
8
8
8
8
7
7
7
7
7
7
7
7
5
8
12
15
16
20
26
30
36
35
37
42
45
40
49
45
52
46
40
35
28
23
14
10
9
8
7
7
10
11
18
46
66
122
152
173
194
212
209
220
226
230
224
230
231
229
222
160
10
3
6
5
6
6
6
4
66
99
151
177
172
229
255
255
255
255
255
255
253
252
232
205
178
178
99
15
29
71
94
94
66
46
21
6
8
7
8
7
7
7
7
7
11
13
17
22
21
24
27
29
35
36
44
52
64
71
69
77
85
78
62
54
42
36
24
15
9
8
7
7
10
15
11
18
24
59
96
149
171
188
205
213
225
232
230
238
238
234
227
169
18
3
4
6
6
6
5
3
44
164
178
171
184
248
254
255
255
255
255
255
254
240
213
188
184
163
28
113
222
215
176
119
96
51
26
15
11
13
15
10
9
8
6
4
13
10
18
33
31
30
31
39
47
48
63
80
100
110
127
138
145
131
73
59
36
35
23
6
8
8
9
10
25
47
57
79
60
43
34
55
117
168
187
200
214
220
232
241
239
240
232
189
44
4
5
8
6
6
5
4
26
191
204
170
192
252
255
255
255
255
255
255
253
233
205
187
169
87
117
228
140
62
36
12
24
10
11
7
8
37
12
14
9
9
7
5
10
8
16
29
43
35
48
51
59
66
87
110
141
158
179
189
187
139
78
35
31
18
8
7
7
7
8
8
18
22
48
89
134
152
137
88
31
99
179
192
207
221
236
241
238
238
235
199
72
3
8
5
6
6
5
4
21
204
241
185
181
248
255
255
255
255
255
255
251
244
223
200
191
160
101
134
50
71
66
46
14
17
9
6
4
15
14
4
11
10
7
7
7
5
14
26
50
70
80
83
87
101
129
156
185
201
210
206
176
133
38
12
10
6
5
7
6
7
7
8
7
41
53
0
22
30
119
149
117
20
110
189
200
222
238
240
238
236
238
211
101
2
11
1
6
6
5
4
0
187
230
187
187
233
254
255
255
255
255
255
255
250
235
220
220
217
236
255
196
234
175
111
2
6
9
10
10
11
9
63
18
7
8
3
8
7
12
18
42
107
119
134
130
125
164
199
212
231
234
201
169
84
5
10
6
4
12
7
5
4
6
10
14
0
13
0
156
72
11
33
75
100
66
170
208
231
244
240
242
234
231
202
95
7
9
20
6
6
5
4
1
129
222
187
183
222
251
255
255
255
255
255
255
255
249
241
238
243
249
252
229
199
202
153
60
5
13
3
4
17
75
103
72
12
10
9
9
5
4
7
38
114
147
143
157
152
178
214
246
248
235
201
112
36
17
8
15
10
13
8
17
9
7
14
6
11
2
37
163
191
134
106
84
126
184
190
221
235
244
242
240
232
228
194
84
9
9
23
6
6
5
4
4
45
170
173
179
208
249
255
255
255
255
255
255
255
254
248
241
245
249
252
228
192
169
158
106
40
17
15
31
51
80
88
61
13
5
7
8
6
9
11
32
91
151
160
185
181
195
232
248
246
234
203
139
93
43
15
32
17
22
30
28
26
18
5
8
13
80
185
226
198
192
185
183
198
211
216
235
241
244
244
237
231
224
187
52
13
10
9
6
6
7
6
6
6
79
156
177
205
244
254
255
255
255
255
254
255
255
250
239
240
241
242
238
184
133
100
91
68
49
47
52
46
50
55
69
40
38
29
10
9
9
42
54
71
132
170
191
192
194
232
252
246
237
225
200
158
121
32
12
12
30
39
55
86
90
97
89
137
182
197
197
173
159
161
207
222
228
236
239
241
244
247
235
231
221
170
47
17
7
7
5
6
7
7
10
5
10
88
165
210
235
252
255
255
255
255
254
255
252
247
234
229
220
214
232
194
133
92
47
35
24
25
23
14
19
17
35
20
26
19
8
3
25
80
96
113
117
173
209
164
185
227
254
247
238
233
224
194
141
34
22
10
13
9
18
29
25
38
56
69
94
107
142
152
167
195
215
230
233
240
240
240
242
243
240
220
214
124
42
15
7
8
4
5
5
6
5
4
5
7
58
159
214
251
255
255
255
255
255
255
248
240
230
220
206
197
185
172
120
87
38
44
35
17
21
12
17
17
11
14
18
12
13
16
74
128
158
142
161
196
228
188
197
226
254
249
243
239
229
226
175
62
25
13
13
7
6
15
32
54
62
72
105
114
143
177
200
215
229
240
238
242
242
240
239
238
229
213
202
81
27
10
8
6
4
5
6
6
6
4
6
5
2
35
124
243
255
255
255
255
255
253
245
235
230
220
211
201
189
166
128
66
33
20
17
10
14
11
13
14
11
18
18
13
14
48
139
187
200
172
191
210
238
234
219
226
252
250
246
246
245
244
215
138
51
30
24
17
14
17
30
40
69
89
119
148
183
212
228
230
238
245
243
242
240
239
236
232
219
208
162
33
16
7
8
6
5
6
7
7
5
5
5
5
7
10
22
214
255
254
254
254
253
250
241
231
228
216
214
202
199
186
169
122
86
47
36
23
26
26
28
28
24
26
37
51
94
135
191
217
213
203
203
215
240
232
222
218
248
252
246
251
250
250
247
213
134
74
58
60
64
68
85
104
126
153
177
203
217
225
235
237
244
248
250
248
234
236
230
223
212
202
92
10
8
9
8
9
4
5
6
6
5
5
5
5
6
7
0
169
255
254
254
254
250
248
238
229
224
215
215
206
196
182
165
143
114
75
53
48
53
40
45
43
56
82
114
156
190
211
214
221
225
216
213
215
238
231
210
213
247
250
244
248
254
250
251
243
209
135
95
83
94
106
136
163
179
195
206
224
225
233
238
236
246
250
251
250
234
234
225
216
204
178
26
8
7
7
7
7
3
4
5
5
5
5
5
5
6
10
6
144
255
254
254
254
248
246
236
226
222
214
216
209
190
171
147
138
114
94
71
63
62
69
80
105
135
179
193
207
224
233
234
228
232
231
230
232
236
218
189
209
245
249
242
247
252
254
251
248
232
202
134
87
88
102
134
163
185
199
207
221
220
229
237
238
240
245
246
244
234
232
221
211
191
124
9
11
7
7
7
7
2
3
4
4
4
4
4
4
9
16
30
134
255
255
255
251
247
240
232
227
216
215
206
197
189
164
143
117
110
109
95
96
109
133
160
174
190
207
219
234
230
237
239
237
239
235
235
237
248
206
179
197
242
242
244
245
252
255
253
242
229
216
198
152
107
106
130
146
171
185
195
211
214
218
225
229
235
233
232
230
226
228
218
204
180
47
7
4
7
7
7
7
4
4
5
6
7
7
7
6
32
53
42
98
255
254
255
254
251
243
232
224
215
212
201
190
183
169
148
135
122
124
129
151
168
179
191
195
205
211
215
233
238
242
242
237
242
240
242
248
249
218
193
208
243
244
245
246
248
253
249
239
232
228
202
193
171
146
145
148
174
187
193
207
209
214
220
225
228
227
225
224
222
222
209
194
148
9
6
4
7
7
7
7
4
5
5
6
10
9
10
9
42
61
25
47
255
252
255
255
254
245
231
222
213
209
196
183
177
174
153
150
144
157
163
179
187
194
200
199
204
221
226
237
245
248
245
238
246
245
250
255
252
227
205
216
243
245
245
247
245
251
246
235
226
225
210
198
196
180
179
172
175
187
191
204
205
209
215
221
222
221
219
218
218
216
201
184
99
10
5
9
7
7
7
7
5
6
7
7
14
16
4
6
13
16
6
23
239
253
255
253
255
250
236
224
216
207
193
184
170
163
157
158
159
170
178
179
188
190
194
194
207
222
237
243
252
243
239
242
252
253
253
254
253
233
216
229
251
245
243
247
240
244
243
239
230
221
205
210
201
205
194
190
180
186
192
196
200
207
212
211
215
215
214
213
215
204
192
177
61
6
9
6
7
7
7
7
5
5
6
7
11
10
5
5
3
6
10
3
212
254
255
255
255
251
240
228
219
210
196
186
179
172
168
168
171
170
177
187
187
189
179
200
203
219
236
244
252
242
242
254
253
254
254
255
254
245
227
230
255
249
248
251
241
243
240
234
225
222
206
205
203
212
205
205
199
198
197
196
199
207
211
211
210
210
209
209
207
202
186
178
24
3
10
3
7
7
7
7
3
5
5
6
6
2
7
4
4
7
3
1
178
255
253
255
254
252
244
235
222
213
199
190
184
177
172
173
169
170
174
178
178
181
176
191
185
203
223
233
236
239
246
252
254
254
255
255
255
242
225
233
252
246
244
247
241
241
236
228
220
223
206
200
200
207
198
196
204
202
201
200
198
206
211
211
205
205
204
203
204
187
185
177
7
2
7
5
7
7
7
7
6
3
2
5
7
4
6
3
6
6
2
6
146
255
252
253
255
252
249
236
227
216
199
188
177
178
171
175
164
171
176
175
173
177
177
172
165
179
201
220
237
250
255
252
255
255
255
255
255
234
220
230
245
245
241
246
242
241
225
222
213
215
210
193
208
202
192
193
197
198
199
201
201
203
205
205
203
202
201
201
194
201
202
128
5
4
5
6
6
6
6
6
11
5
3
5
5
5
4
3
5
9
11
6
127
254
255
255
255
252
252
239
226
216
199
188
183
182
173
172
167
174
176
173
173
169
158
147
142
164
176
230
243
253
255
252
255
255
255
255
250
234
225
228
250
251
239
240
245
248
229
208
206
196
200
196
199
194
195
197
196
197
199
200
202
202
202
202
200
199
198
199
189
206
208
74
4
5
5
5
5
5
5
5
18
10
5
5
7
9
11
13
4
13
29
41
127
255
254
253
255
252
255
244
231
223
209
201
187
182
182
176
173
175
172
165
163
148
131
122
120
147
179
238
253
255
255
255
255
255
255
255
252
222
220
246
254
253
238
237
246
251
239
207
181
183
192
186
191
188
201
193
196
197
199
200
202
202
202
202
201
201
200
199
207
222
206
30
5
5
5
5
5
5
5
5
20
12
5
5
13
17
21
23
25
20
36
63
114
248
255
255
254
253
255
250
241
233
221
212
199
189
185
175
180
178
172
160
147
127
112
111
112
139
204
236
255
254
255
254
254
255
255
254
247
224
225
248
252
251
241
241
245
245
243
219
178
170
177
187
193
190
201
188
198
199
198
201
204
203
203
202
207
206
206
207
217
226
174
2
4
6
5
6
6
5
5
5
14
6
5
11
18
23
24
20
30
26
42
66
104
232
253
254
255
255
255
255
243
240
229
216
212
201
191
188
188
182
177
155
130
108
105
106
111
156
197
248
254
254
255
254
254
255
255
254
238
221
224
246
255
247
242
243
243
248
249
230
195
176
168
179
196
198
201
205
204
205
198
207
210
208
206
204
208
208
212
220
236
223
170
25
0
11
4
10
7
7
7
7
17
5
6
20
39
39
34
27
33
47
68
84
96
205
255
255
255
255
255
255
252
248
236
224
219
208
198
196
190
181
169
144
126
108
117
109
145
154
184
252
245
254
255
248
255
253
255
247
213
203
215
242
252
245
240
241
239
242
248
238
222
185
177
183
184
190
199
206
211
206
207
209
211
211
212
212
212
214
222
232
237
233
231
188
74
5
0
7
7
7
7
7
19
3
7
26
61
62
61
55
58
75
89
90
89
154
251
248
255
255
255
255
253
252
246
238
225
215
205
203
193
180
164
134
138
124
130
151
151
150
192
233
184
184
238
254
254
253
254
219
187
182
200
233
245
237
231
233
231
231
241
239
238
215
187
189
178
189
203
212
216
206
214
212
211
214
216
219
217
220
230
241
245
240
251
243
239
214
133
43
3
6
7
7
8
9
8
24
51
60
60
70
73
89
100
101
82
104
237
255
255
255
255
255
255
255
251
244
227
227
221
214
198
194
180
168
150
151
165
166
167
179
203
206
126
34
32
184
246
255
226
178
154
144
169
212
224
225
222
172
126
185
242
246
244
237
218
200
198
199
205
214
212
214
215
217
220
221
223
224
225
235
242
243
247
248
246
243
251
255
255
240
189
93
24
7
6
7
6
22
41
51
54
65
75
84
85
79
81
77
187
255
255
255
255
255
254
255
254
248
233
226
219
218
219
212
195
180
175
186
180
186
191
200
208
208
215
158
97
66
188
255
186
116
102
106
126
166
208
216
219
122
155
239
245
251
252
247
233
220
211
211
215
221
225
222
220
217
224
225
226
227
231
239
244
243
248
254
253
245
244
255
252
255
255
255
191
56
4
4
3
21
30
43
47
60
67
75
76
67
67
62
118
246
255
255
255
255
252
255
255
253
246
233
226
231
221
220
210
200
192
194
205
209
205
219
216
219
236
252
240
200
170
174
185
64
45
52
66
117
203
230
245
254
255
251
250
250
253
251
243
234
223
221
223
228
227
227
228
229
228
230
230
232
239
244
247
246
232
251
255
251
234
240
252
254
254
250
255
217
3
4
4
6
15
27
48
65
72
72
61
63
59
56
87
203
255
255
255
255
255
255
255
255
253
239
240
238
220
215
214
187
204
210
211
205
204
215
228
236
245
252
251
223
197
93
30
37
30
36
69
128
210
230
243
255
255
254
253
253
251
255
249
235
232
229
229
233
230
230
229
229
228
230
233
235
237
244
242
225
195
228
251
255
241
220
227
246
253
254
255
255
3
4
4
5
10
12
33
61
71
72
56
53
65
69
95
161
245
253
250
254
255
255
255
255
255
253
248
238
220
214
195
205
212
210
202
195
198
209
225
237
242
247
247
226
180
111
87
94
80
75
98
164
220
236
245
254
254
254
253
253
249
252
247
237
233
229
229
233
236
235
234
234
233
235
239
241
238
245
237
153
124
177
229
249
255
250
233
234
254
253
255
255
3
4
4
5
7
4
15
33
50
59
48
41
47
62
103
134
211
255
252
253
255
255
255
255
255
254
238
233
230
206
209
223
214
205
196
193
194
208
227
240
247
248
252
238
217
208
215
192
142
130
134
204
235
247
246
251
254
253
252
252
246
245
243
241
234
230
230
234
236
235
234
234
233
235
239
241
242
240
208
58
56
117
190
230
253
251
255
247
252
253
254
255
3
4
4
5
6
6
10
15
32
44
45
42
45
56
87
106
137
232
255
255
255
255
255
255
254
254
246
247
232
217
233
224
208
187
188
198
221
233
248
255
255
253
250
241
233
237
240
227
187
190
189
225
243
249
251
251
251
251
249
247
243
240
239
239
230
228
229
234
233
232
231
230
230
231
237
228
216
237
135
4
21
46
106
185
232
253
255
255
253
254
254
255
3
4
4
5
8
7
12
19
35
43
50
51
49
54
65
76
96
173
249
254
255
255
255
255
255
254
249
239
237
236
230
192
167
145
170
208
243
248
245
236
189
178
160
149
121
137
173
207
215
220
206
200
206
216
228
238
252
250
247
244
239
230
229
234
229
225
224
227
233
231
229
228
233
233
219
194
215
236
203
67
3
9
36
99
187
244
252
251
255
255
255
255
3
4
4
5
10
9
14
21
34
42
48
49
50
53
63
72
98
139
221
255
255
255
255
255
255
253
244
233
230
220
174
114
53
47
85
128
139
114
92
87
65
61
53
47
46
39
57
89
124
121
112
118
128
138
144
168
187
215
234
231
229
219
214
215
225
222
222
227
229
229
227
225
226
215
121
165
199
224
218
205
121
75
38
45
98
198
237
252
255
255
255
255
3
4
4
4
11
11
16
23
28
37
44
45
50
61
80
97
112
139
173
233
255
255
255
255
255
252
239
226
210
174
114
42
15
9
14
25
15
10
10
14
21
19
17
19
14
14
15
22
34
53
54
58
68
69
61
82
87
103
130
155
158
132
146
190
212
216
223
233
228
226
223
223
223
96
21
77
122
149
174
192
215
223
220
204
153
147
212
248
255
255
255
255
2
3
3
4
9
16
24
29
40
53
68
73
78
86
99
111
127
141
153
191
249
254
253
253
255
253
233
205
193
163
111
69
86
125
117
126
107
73
83
34
63
11
1
10
3
9
8
11
6
13
14
22
23
31
36
56
60
71
78
99
88
80
119
184
193
211
222
224
231
219
213
217
170
13
4
25
31
57
92
132
176
199
221
244
255
236
195
227
249
255
253
255
2
3
4
4
6
14
25
31
52
71
94
106
104
97
100
108
139
149
147
171
214
254
255
254
254
255
241
220
192
170
141
122
167
183
199
203
204
174
196
165
171
76
47
39
28
12
25
25
30
22
72
92
125
148
125
175
170
186
210
218
223
205
194
196
194
204
222
216
217
211
220
197
63
4
6
5
8
14
28
60
104
162
201
236
252
255
238
202
237
253
254
255
2
3
4
4
3
12
26
34
58
77
101
113
112
98
98
111
128
144
146
165
186
233
255
253
253
255
248
229
207
186
163
150
165
135
158
151
153
168
161
155
140
76
66
69
86
40
91
53
61
48
129
102
137
161
165
174
203
209
218
212
217
219
212
201
198
211
207
202
212
208
203
121
10
7
0
11
4
8
5
17
37
92
167
222
252
255
255
242
220
250
255
254
2
3
4
4
5
11
26
39
57
84
92
120
116
99
103
105
114
133
137
162
183
190
242
255
252
254
254
247
218
195
177
158
134
114
92
82
86
94
105
93
81
69
56
48
62
59
47
37
40
42
64
72
111
116
157
186
184
177
194
200
210
212
212
211
220
210
206
210
210
195
145
48
4
5
5
5
7
7
7
6
8
22
119
197
236
255
255
253
246
239
251
253
2
3
4
4
5
12
28
43
58
81
96
118
124
121
113
101
112
120
133
168
177
180
187
242
255
251
255
252
247
218
185
150
125
92
75
44
38
42
52
46
36
32
30
33
43
44
41
34
46
46
56
64
90
128
137
147
149
172
194
200
201
210
212
206
213
212
213
216
206
153
79
6
5
5
5
5
7
7
7
7
3
12
61
150
209
244
254
253
254
241
245
255
2
3
4
4
3
13
32
49
66
82
105
122
124
132
126
124
126
131
150
172
180
169
147
177
243
255
255
251
253
232
205
170
124
105
84
55
36
25
24
12
17
11
9
12
15
20
22
19
24
27
25
37
55
84
108
146
167
188
194
199
203
209
215
217
215
220
218
215
171
88
18
7
5
5
5
5
7
7
7
7
6
9
25
94
178
227
252
253
255
251
244
253
3
3
3
3
4
12
29
45
59
79
104
120
121
122
119
131
137
146
162
173
172
162
135
114
163
246
254
252
255
246
224
181
161
160
113
86
65
37
15
11
5
6
8
11
6
11
15
18
20
30
26
33
51
98
135
163
183
201
209
207
205
217
222
217
225
219
223
188
93
25
4
11
5
5
5
5
7
7
7
7
8
6
15
69
156
210
244
253
255
255
252
253
3
3
3
3
4
12
28
43
53
67
89
105
120
118
110
115
120
133
151
164
158
144
118
89
82
165
254
254
255
252
241
209
209
186
165
154
130
107
89
86
95
101
112
119
135
149
169
183
190
181
163
130
126
168
195
204
207
218
225
222
228
236
237
231
220
217
195
100
25
1
3
8
5
5
5
5
7
7
7
7
8
6
14
53
129
198
234
255
255
255
254
254
3
3
3
3
3
10
27
42
58
61
77
96
109
113
102
99
104
113
129
138
142
124
110
76
66
56
162
247
255
253
254
236
225
207
204
192
183
182
186
193
206
206
207
208
214
219
228
234
232
238
239
222
205
201
217
232
234
235
236
236
246
251
246
235
216
199
124
25
8
7
8
3
5
5
5
5
7
7
7
7
7
6
12
28
81
166
230
254
255
255
255
255
2
2
3
3
3
10
27
42
51
51
63
78
99
106
101
98
100
104
113
121
118
103
94
64
43
40
48
153
246
255
253
244
230
223
212
204
190
196
209
213
209
211
207
210
203
212
222
234
233
243
242
246
243
236
240
240
244
243
240
239
249
251
243
227
195
113
141
77
2
6
8
3
6
7
4
6
7
7
7
7
6
12
37
43
55
143
229
254
255
255
255
255
2
3
4
4
6
13
27
42
51
52
58
65
86
94
102
103
108
114
123
130
120
102
83
56
37
28
24
37
134
240
255
244
234
223
211
202
184
187
198
192
191
188
188
185
182
192
198
215
225
230
239
247
248
247
246
245
243
246
243
237
236
235
235
182
77
17
133
188
35
4
6
4
7
5
4
3
6
2
6
5
20
49
89
108
148
208
246
255
255
255
255
255
4
5
6
6
10
15
26
39
49
48
53
60
73
87
102
108
117
129
138
139
127
99
74
51
30
21
12
19
22
97
230
253
231
215
200
193
165
168
178
172
162
155
157
148
151
162
171
190
203
215
229
238
241
242
244
245
245
245
239
231
228
211
169
48
7
11
29
123
61
10
4
7
2
8
8
6
17
8
8
34
83
120
147
176
200
237
251
252
254
254
254
254
5
6
7
7
14
16
26
37
41
44
54
64
78
91
105
111
111
127
136
132
126
90
61
39
22
19
13
11
13
15
73
216
218
210
191
174
147
144
146
133
129
129
116
115
119
132
144
164
173
202
221
220
230
232
236
238
246
244
236
227
210
144
22
6
11
7
6
6
20
22
6
6
7
13
26
98
151
43
67
132
175
192
211
222
238
255
255
251
253
253
253
253
8
10
12
14
18
19
24
33
42
56
71
77
87
95
104
105
108
114
119
118
100
70
45
22
16
13
9
6
13
11
6
55
218
226
178
160
126
119
107
96
100
88
80
77
87
101
111
129
146
173
192
213
221
218
225
235
236
233
226
209
196
97
7
5
4
5
5
5
8
6
7
41
79
90
138
212
225
79
157
208
223
229
241
248
255
255
254
255
246
249
253
255
10
12
14
15
18
18
24
33
47
61
75
81
84
90
94
92
86
89
88
84
65
42
28
13
12
11
9
8
9
11
14
126
244
253
224
177
136
103
79
78
60
57
58
63
68
69
71
90
113
145
172
195
205
212
218
221
208
209
184
189
208
163
86
57
65
61
50
20
4
25
110
179
208
195
205
231
243
171
231
243
250
251
253
255
255
254
254
254
251
253
254
255
11
13
15
17
17
18
25
34
44
58
72
79
77
79
77
72
65
65
59
51
38
22
18
10
7
8
9
10
11
15
193
248
255
250
253
245
195
120
66
66
47
46
48
53
55
60
54
59
84
113
137
158
166
165
177
192
206
226
222
225
231
219
215
210
208
208
203
159
67
149
220
236
238
225
234
238
247
235
253
254
254
255
255
255
254
254
253
252
255
255
255
255
12
13
16
17
18
19
22
23
39
46
59
69
60
63
61
56
51
39
28
25
18
16
11
7
11
11
7
12
14
197
254
251
251
255
255
255
251
222
156
93
59
45
37
42
41
33
35
47
55
92
115
150
183
202
225
237
247
247
248
249
249
249
249
249
247
246
245
246
214
236
250
249
249
245
246
250
255
255
255
255
255
255
255
255
253
245
248
253
253
254
245
222
10
12
14
16
16
18
20
21
31
38
48
55
58
57
49
41
37
27
18
16
15
13
10
9
9
14
4
24
166
255
255
253
255
255
254
255
254
255
253
248
228
206
182
170
168
164
169
175
205
220
226
244
243
250
255
255
254
255
255
254
255
255
255
255
255
255
254
254
252
255
255
253
254
251
251
255
255
255
255
255
255
254
252
251
245
240
255
251
244
216
151
46
8
10
12
14
13
14
18
19
20
26
34
39
44
45
40
33
28
19
14
13
9
10
10
11
10
4
23
160
255
251
251
251
255
249
246
252
248
245
245
247
254
255
255
255
252
251
248
246
234
237
239
241
246
252
254
252
255
255
255
255
255
255
255
255
254
253
253
253
252
253
254
254
253
250
251
254
255
255
255
255
255
252
247
243
246
253
248
236
145
59
2
11
7
8
10
11
12
13
15
16
18
21
24
26
33
34
33
32
22
17
12
14
8
11
12
9
14
27
187
254
255
255
253
254
254
238
232
242
239
227
228
240
254
255
255
255
253
253
253
251
247
244
245
248
251
253
254
255
251
252
253
254
254
254
255
255
254
255
255
248
249
245
242
244
247
242
243
251
255
255
255
255
254
244
241
249
252
240
245
159
18
8
16
11
6
8
9
10
12
13
15
16
18
20
21
22
28
27
28
28
21
14
12
14
10
4
15
20
22
215
250
252
255
255
255
254
237
216
226
226
228
217
221
233
255
253
252
252
255
254
253
253
247
244
245
250
253
253
253
253
253
254
255
255
252
252
251
251
248
247
243
236
238
231
227
228
240
239
242
247
253
251
250
248
239
232
255
244
233
245
223
35
9
7
13
12
5
6
8
9
11
12
13
15
16
17
19
20
22
22
22
22
20
13
11
12
12
15
12
30
226
253
255
255
253
255
253
244
236
219
225
217
211
202
208
223
242
240
239
239
239
238
238
237
237
234
235
239
240
240
240
240
242
243
244
245
243
240
237
234
230
222
214
212
204
206
214
224
228
236
242
243
250
244
236
232
225
245
227
238
252
244
70
9
10
9
10
23
5
6
7
8
10
11
14
14
16
17
18
18
18
18
18
18
17
13
11
12
15
6
27
208
254
250
253
253
252
255
251
237
235
226
213
201
199
191
201
216
223
222
221
220
215
215
214
213
223
220
221
225
226
226
226
225
225
225
225
225
227
224
218
214
210
199
186
185
188
187
199
209
221
232
241
241
245
237
226
218
223
216
231
250
235
113
6
12
14
15
15
38
4
5
6
6
10
11
14
16
17
17
16
16
15
15
15
15
13
13
13
13
17
13
182
255
255
255
255
255
255
252
241
230
230
226
210
189
191
181
192
198
203
199
194
191
190
190
189
188
194
196
199
201
203
204
205
206
209
207
204
203
198
197
189
180
170
164
138
126
130
130
149
175
205
215
226
230
230
215
206
210
206
218
253
217
104
11
12
12
8
13
25
54
4
5
6
6
8
10
12
14
15
15
15
15
14
14
14
14
13
13
13
13
12
129
254
252
255
255
255
255
255
251
238
225
223
221
208
191
179
169
163
169
166
163
158
155
160
160
159
158
163
166
172
176
178
179
180
182
182
174
162
154
148
145
135
124
113
94
75
62
58
57
59
83
96
119
147
163
151
139
140
153
182
200
161
65
15
11
9
10
6
9
34
61
4
5
6
6
7
8
11
12
15
15
15
15
14
14
14
14
13
13
13
13
34
249
247
255
255
255
255
255
255
253
246
236
215
217
206
191
177
160
127
124
112
115
118
120
110
109
108
108
112
117
125
131
130
126
120
115
109
100
87
79
75
70
57
44
35
25
24
11
11
10
17
9
15
21
24
23
20
21
28
35
49
33
25
20
9
16
12
12
13
10
38
58
7
7
8
9
7
8
9
11
12
13
13
14
13
13
13
13
11
8
17
15
153
255
253
252
255
255
255
255
255
252
244
239
221
208
208
198
188
180
144
95
81
71
74
68
69
65
63
67
61
62
63
64
56
52
45
41
29
25
18
13
12
11
11
10
5
7
10
12
11
10
9
9
7
12
12
9
9
10
10
10
23
16
24
19
9
14
16
15
10
36
53
54
7
7
8
9
7
8
10
11
12
13
14
14
13
13
13
13
14
14
14
38
250
252
255
255
255
255
255
255
255
250
242
236
233
216
206
208
204
188
183
149
99
68
45
28
27
22
20
23
22
20
18
17
11
12
12
13
9
10
11
12
11
10
8
7
7
9
12
13
19
17
14
12
12
15
13
9
10
10
12
11
36
39
29
30
17
14
13
15
32
64
74
56
7
7
8
9
7
8
9
11
12
13
14
14
13
13
13
13
10
18
15
142
254
255
252
253
255
255
255
255
253
247
238
233
225
227
215
220
216
202
195
188
178
142
106
75
50
40
29
26
23
20
17
15
14
15
13
12
12
11
10
9
13
12
9
8
4
12
23
34
23
18
12
7
17
18
14
7
10
10
12
11
37
73
55
52
31
21
18
24
45
71
74
52
8
8
9
10
9
9
10
11
12
13
14
14
14
14
14
14
11
20
28
232
255
255
255
255
255
255
255
254
251
243
237
237
231
229
230
235
233
229
218
207
196
175
154
126
98
81
63
53
50
41
27
18
14
14
14
14
13
13
13
13
13
10
11
15
19
38
52
36
11
12
10
9
23
23
10
10
11
11
11
10
28
80
83
73
58
36
19
35
57
59
50
36
