P2
# CREATOR: GIMP PNM Filter Version 1.1
92 112
255
186
186
186
186
186
186
186
187
187
187
187
187
187
186
186
186
186
186
186
187
188
187
187
186
186
186
187
187
186
186
181
165
153
147
140
123
109
90
89
124
144
137
148
121
115
163
169
154
140
156
143
111
128
104
70
91
78
106
129
132
121
86
102
79
94
82
110
105
128
137
143
123
145
141
124
139
132
174
180
185
185
185
184
184
184
185
185
184
180
176
160
112
240
240
240
238
237
237
237
239
239
239
239
239
239
238
238
238
239
239
239
239
241
241
241
238
238
238
241
240
239
236
230
215
185
164
147
122
56
32
49
41
116
148
162
141
181
210
190
183
186
160
160
171
159
143
135
95
105
84
175
98
161
79
111
102
117
109
131
137
127
160
181
162
176
146
140
136
134
211
237
232
232
232
232
232
232
232
232
231
228
220
199
138
245
245
246
243
241
241
242
244
244
244
244
244
244
242
242
242
243
243
243
244
245
245
245
244
244
244
245
244
243
243
215
199
193
195
189
160
137
113
76
98
28
114
118
202
210
213
203
189
152
122
107
106
108
142
105
114
102
91
127
125
109
139
100
85
112
115
137
128
115
147
163
168
165
145
152
132
134
218
240
237
237
237
237
237
237
237
237
236
232
224
201
138
242
242
242
240
239
238
238
238
238
238
238
238
238
237
237
236
240
242
242
241
239
239
239
239
239
239
239
239
238
239
201
182
173
133
99
63
77
110
156
141
158
174
203
205
211
199
193
150
100
93
78
75
73
94
122
105
93
78
111
121
90
105
124
91
105
111
132
117
112
139
149
170
161
153
162
115
145
185
234
236
236
236
237
237
237
236
236
235
236
228
204
141
244
244
244
241
240
240
241
243
243
243
241
242
243
242
242
242
244
244
244
244
244
243
242
242
242
242
243
244
237
232
205
197
183
161
165
202
210
167
165
161
180
205
199
219
206
197
137
126
151
95
78
66
73
78
100
101
84
86
98
103
105
99
115
92
99
110
119
133
125
141
139
158
155
164
154
107
119
198
232
241
237
235
238
238
238
238
238
237
237
231
206
139
242
242
242
240
240
240
241
242
242
241
240
241
242
242
242
242
243
243
243
243
243
243
242
242
242
242
242
241
237
218
183
125
132
150
118
101
91
117
127
147
186
206
206
201
203
153
81
84
97
102
85
67
78
70
101
89
87
106
106
95
108
114
124
109
112
126
120
119
108
143
132
166
152
157
132
108
110
163
217
240
237
238
238
238
238
238
238
237
235
231
208
144
240
240
240
239
239
239
239
239
239
239
239
240
241
242
242
242
242
243
242
243
243
243
242
242
242
242
241
240
235
205
178
156
143
133
126
115
86
74
115
150
207
212
213
204
183
105
74
89
77
101
96
77
70
87
90
91
84
124
158
172
166
158
161
141
136
125
98
121
112
147
146
164
149
157
130
102
94
148
209
238
238
239
238
238
238
238
238
237
234
232
212
148
237
237
237
238
239
238
238
238
238
239
239
239
241
242
242
242
242
242
242
243
244
243
242
242
242
242
241
237
235
192
158
142
140
117
127
126
116
135
135
176
202
202
207
201
159
83
89
82
86
92
101
89
75
81
107
109
143
133
114
130
122
120
121
135
135
138
149
146
134
138
132
150
154
155
151
124
117
146
226
234
238
241
238
238
238
238
238
237
233
231
214
149
237
237
237
236
237
238
238
238
238
238
238
240
240
241
241
241
242
242
242
242
242
242
242
243
241
242
238
243
194
200
162
139
147
146
138
145
143
161
162
180
200
207
201
176
124
113
99
97
93
104
100
102
86
101
145
122
107
124
129
126
124
117
130
131
149
158
136
121
144
177
171
144
155
171
167
165
159
159
193
220
245
241
238
239
244
238
238
237
234
231
215
151
237
237
237
236
237
238
238
238
238
238
238
240
240
241
241
241
242
242
242
242
242
242
242
243
241
241
248
230
201
180
147
163
157
155
155
149
168
171
183
183
201
215
200
162
120
107
107
110
113
106
109
109
120
142
104
112
120
130
134
136
130
139
153
147
135
139
157
159
141
138
155
187
175
175
170
174
159
125
159
211
232
241
239
239
237
238
238
237
235
231
216
152
237
237
237
236
237
238
238
238
238
238
238
240
240
241
241
241
242
242
242
242
242
242
242
243
242
241
244
194
147
189
178
160
151
162
159
170
184
187
183
205
194
205
187
142
126
113
113
116
118
123
120
138
135
112
112
124
129
143
138
144
140
154
148
146
155
154
149
155
161
144
157
168
167
177
178
163
153
145
125
205
238
240
234
240
235
237
238
237
236
232
217
152
237
237
237
236
237
238
238
238
238
238
238
240
240
241
241
241
242
242
242
242
242
242
242
243
241
241
247
160
160
189
165
146
165
157
175
181
195
195
206
185
216
193
165
151
130
119
132
128
125
128
141
138
125
116
127
130
141
143
147
144
148
149
158
157
149
151
145
149
161
165
165
148
164
160
164
173
197
195
182
174
169
199
228
243
241
237
238
237
236
234
218
152
237
237
236
237
237
237
237
238
239
240
239
239
239
238
239
240
240
240
241
242
241
241
241
239
243
223
210
125
124
168
153
161
165
169
168
184
191
201
194
200
205
191
166
152
141
149
145
146
146
156
150
138
134
134
138
142
146
152
152
160
158
157
156
155
155
155
145
143
154
157
156
158
158
167
179
167
162
145
160
193
218
213
216
236
241
238
238
237
234
229
216
156
239
238
238
238
238
238
238
239
239
240
239
239
239
238
239
240
240
240
241
242
241
241
241
241
234
236
183
119
138
155
171
173
170
168
166
187
205
193
196
216
194
171
170
163
165
155
153
157
162
152
144
145
151
145
150
161
165
166
161
163
162
161
163
162
163
156
157
157
153
156
160
162
171
177
184
187
177
144
88
86
164
210
225
229
239
237
238
237
234
230
217
157
242
241
240
239
238
238
239
239
240
241
239
239
239
238
239
240
240
240
241
242
241
242
241
237
234
208
117
114
132
167
172
185
167
163
164
199
195
199
209
208
183
167
174
167
159
163
165
166
168
156
163
160
158
162
165
165
167
168
163
168
168
166
168
169
168
167
163
163
166
159
163
167
166
172
180
174
170
144
135
127
179
178
208
227
239
237
238
237
235
231
218
159
243
243
242
239
239
239
239
240
241
241
239
239
239
238
239
240
240
240
241
242
241
241
241
243
212
170
65
102
152
151
178
167
161
153
183
192
200
207
210
194
188
166
174
163
163
172
173
167
161
166
160
158
163
162
166
170
167
175
174
172
172
170
170
170
169
167
175
177
166
165
163
162
184
193
204
202
208
206
212
189
154
175
182
230
236
238
238
237
235
232
218
160
245
244
243
242
242
242
241
240
240
240
241
241
241
242
241
240
239
239
239
239
241
241
242
240
223
164
55
177
132
160
168
162
160
158
200
193
211
201
199
199
180
175
176
168
171
173
173
162
159
165
166
169
168
172
169
173
172
172
172
169
173
178
178
173
169
162
161
161
164
177
185
193
176
175
181
175
161
159
131
146
180
164
162
242
235
236
236
236
236
229
219
166
244
243
242
241
241
241
241
240
240
240
241
241
241
242
241
240
239
239
239
239
241
241
241
241
217
181
173
118
144
167
157
164
176
183
197
201
208
211
197
189
174
173
177
175
176
174
161
163
170
165
166
169
168
173
169
174
173
173
173
171
173
175
181
167
167
172
160
163
175
164
168
166
162
176
180
179
162
159
135
117
133
144
202
244
243
236
236
236
236
229
219
167
241
241
240
240
240
240
240
239
239
239
241
241
241
242
241
240
239
239
239
239
241
241
241
239
216
181
189
153
166
149
167
167
174
196
202
205
205
198
194
182
173
176
180
177
174
172
168
161
162
165
166
169
169
174
170
174
173
174
174
174
173
173
173
173
169
165
183
163
151
160
154
155
161
162
174
178
176
160
140
120
123
146
232
237
237
236
236
236
236
229
219
168
241
240
239
239
239
239
239
238
238
238
241
241
241
242
241
240
239
239
239
239
241
241
241
238
242
189
160
120
116
151
167
163
194
195
201
209
202
184
189
176
177
186
183
174
169
166
168
161
161
165
166
168
169
174
170
175
174
174
174
177
174
170
175
167
166
180
153
155
160
158
161
160
157
162
162
169
172
169
142
123
138
128
211
237
236
236
236
236
236
229
219
169
239
239
239
239
240
241
241
242
242
241
238
238
238
238
238
238
240
241
241
241
241
241
241
240
232
180
120
86
140
165
162
191
188
199
208
210
189
188
175
178
180
180
176
171
169
167
164
163
162
164
166
169
169
170
172
173
173
173
173
170
171
178
179
165
188
161
165
166
160
161
161
161
163
166
161
164
164
159
158
132
126
109
201
235
239
237
237
235
236
230
221
172
238
238
238
239
240
241
241
241
241
241
239
239
239
239
239
239
240
241
241
241
241
241
241
245
224
147
78
131
157
169
193
191
194
205
204
199
194
185
180
182
179
173
169
167
166
164
162
162
160
163
165
168
168
169
171
171
171
171
172
173
162
170
164
183
162
167
168
163
159
163
163
163
162
168
162
159
160
153
147
137
112
92
200
239
243
237
237
235
236
230
221
174
238
238
238
238
239
240
240
240
240
240
240
240
240
240
240
240
241
241
241
241
241
241
241
238
217
120
121
144
162
200
179
195
212
199
200
193
189
177
181
170
170
174
170
163
163
161
161
160
159
160
163
166
167
167
170
170
171
171
171
168
176
163
185
162
175
172
169
163
163
163
163
163
164
167
163
165
165
145
120
95
80
86
198
236
237
237
237
235
236
230
221
176
237
237
237
237
238
239
240
240
240
240
240
240
240
240
240
240
241
241
241
241
241
241
242
244
196
119
158
147
193
186
195
208
192
198
200
196
171
179
171
171
170
166
163
161
159
158
160
159
158
160
162
165
165
166
168
169
169
169
169
175
167
184
166
166
166
172
165
166
172
164
165
165
164
168
164
157
166
156
125
92
91
76
170
246
234
237
237
236
236
230
220
178
239
239
239
239
239
239
239
238
238
238
242
242
242
240
240
240
239
239
239
239
237
242
234
226
175
157
146
178
177
202
198
180
197
194
186
170
176
172
169
170
172
167
163
159
156
159
159
158
157
159
161
163
164
164
164
167
172
169
163
168
185
167
167
170
172
170
169
170
171
171
169
167
165
165
163
164
155
158
128
88
61
53
198
238
236
238
239
233
235
230
222
181
239
239
239
239
238
238
239
238
238
238
241
241
241
240
240
240
239
238
239
238
237
242
234
215
198
164
164
194
206
184
172
203
188
188
174
176
171
172
174
171
171
168
160
161
160
155
159
157
156
159
160
162
161
162
165
168
168
169
172
181
157
163
173
170
166
167
169
170
170
171
169
167
166
166
164
164
156
154
146
82
70
42
94
221
231
235
239
235
236
231
223
182
239
239
239
238
238
238
238
238
238
238
240
240
240
239
239
239
238
238
238
237
236
241
233
207
206
194
206
180
169
177
204
188
196
171
171
172
171
173
175
171
171
168
160
161
160
155
158
157
156
159
160
162
162
162
163
163
155
181
173
156
165
174
165
167
172
170
168
169
169
171
169
167
170
167
165
166
156
151
148
121
48
65
138
242
234
231
236
236
237
232
224
185
239
239
239
237
237
237
238
238
238
238
240
240
240
239
239
239
237
237
237
237
236
241
233
232
200
156
122
164
197
199
181
184
170
165
169
167
178
174
170
170
171
167
163
159
156
159
157
156
156
158
160
161
169
166
158
159
185
155
167
170
168
171
170
168
167
166
167
167
169
170
167
166
170
167
166
167
154
148
146
136
71
51
129
226
234
228
236
237
238
232
224
187
241
241
239
238
238
238
239
238
238
238
239
238
237
236
236
236
237
237
237
235
232
234
226
205
167
176
191
190
200
180
157
171
170
168
169
170
170
173
176
175
171
167
163
163
161
159
159
161
160
157
153
155
158
154
172
171
152
160
171
166
166
163
164
167
169
175
179
180
182
182
177
172
169
180
181
170
161
155
139
122
96
45
83
168
230
233
234
235
236
231
225
190
240
239
239
237
237
237
237
237
237
237
238
237
236
234
234
234
236
237
237
237
235
228
220
232
177
160
181
176
141
140
160
164
163
167
168
169
173
173
173
173
170
166
163
162
161
158
159
166
159
173
165
164
172
194
167
165
171
175
172
166
163
173
188
184
177
171
167
161
158
159
162
164
167
167
175
178
171
146
135
140
75
63
112
175
233
233
234
236
236
231
225
191
238
238
237
234
233
233
234
233
233
234
236
235
235
233
233
233
235
236
236
233
226
224
228
217
195
153
132
97
113
127
165
179
187
179
172
165
176
173
171
172
169
165
164
165
164
161
156
152
145
143
146
169
170
150
140
146
148
136
146
177
190
179
166
165
164
163
164
167
169
167
163
160
164
166
159
162
165
170
160
141
67
59
136
244
233
235
235
237
237
231
225
193
238
237
236
233
232
232
232
232
232
232
235
234
233
233
232
232
235
236
236
235
227
219
221
209
171
161
109
91
90
116
146
166
177
178
183
187
176
172
167
172
169
165
159
155
153
152
148
146
164
180
166
146
143
146
165
161
173
192
182
163
154
157
158
159
160
165
167
164
163
166
162
159
155
153
161
170
168
147
143
157
77
29
129
240
225
235
236
237
237
231
225
195
235
235
234
231
231
231
230
229
231
231
234
232
233
230
231
232
234
235
235
234
229
215
227
185
181
141
108
85
96
120
156
167
167
174
174
175
176
184
184
182
179
175
172
166
164
172
186
187
179
174
182
186
190
185
176
170
161
149
149
158
157
158
162
161
161
163
167
171
174
169
169
168
162
162
160
157
158
151
149
135
99
40
138
231
229
237
237
236
236
232
227
197
235
234
233
231
231
231
230
230
231
231
234
232
232
231
233
233
236
237
237
234
232
230
224
205
163
130
85
78
101
128
158
167
168
169
168
168
177
168
166
167
172
180
183
182
182
180
175
175
165
153
155
160
156
155
157
154
149
157
155
157
157
157
162
161
162
164
167
171
174
176
175
174
172
171
169
162
158
147
137
127
108
69
140
225
235
237
237
236
236
232
227
199
232
232
231
230
230
230
230
230
231
231
234
232
232
234
235
235
237
237
237
238
235
222
202
186
156
124
77
69
107
141
161
166
173
176
172
170
162
157
161
157
155
154
155
148
145
154
145
145
156
164
160
156
162
164
161
160
161
162
157
157
158
159
162
162
162
163
166
169
173
176
175
175
178
176
175
166
163
152
139
128
49
116
146
237
237
237
237
236
236
232
227
199
232
231
230
230
229
229
230
230
231
231
234
232
232
233
234
235
237
238
238
238
239
237
201
202
150
133
75
74
114
145
163
165
175
172
166
161
164
163
152
149
148
148
147
144
144
145
146
145
151
148
154
162
159
158
160
160
154
154
161
158
158
159
161
162
162
162
165
169
172
174
172
173
177
176
173
169
169
165
151
139
42
70
148
182
218
238
237
236
236
232
227
202
228
229
230
229
230
231
232
231
232
233
235
235
235
236
237
239
238
238
240
242
240
231
213
189
170
138
91
97
126
155
168
172
166
167
168
155
157
143
134
128
142
140
142
142
138
149
147
147
151
149
155
154
156
158
160
159
156
157
157
159
162
158
163
159
162
169
157
154
143
140
138
133
147
177
181
167
175
165
157
136
78
56
57
161
225
231
236
233
239
233
225
199
228
229
230
229
230
231
231
232
233
233
236
235
235
236
239
240
240
240
241
245
244
228
205
186
175
132
95
118
131
166
170
171
173
168
154
119
107
90
75
88
70
104
121
121
137
135
145
149
151
154
159
159
156
158
160
161
162
163
163
160
154
158
159
158
152
127
106
98
76
64
75
109
136
159
158
179
175
167
161
131
78
48
102
170
226
225
237
234
237
232
226
201
228
229
230
229
230
231
232
234
234
235
238
237
237
239
240
242
242
242
244
242
237
243
236
199
181
141
105
123
136
174
175
165
145
119
108
103
93
81
74
73
81
81
90
98
122
118
133
144
145
152
158
158
157
158
160
160
162
163
164
159
155
141
130
118
100
89
94
74
82
101
126
131
146
148
159
159
172
174
168
139
84
87
95
161
196
219
237
235
234
231
228
203
229
230
230
229
230
231
232
234
235
236
238
238
238
239
241
243
243
244
245
245
241
241
228
211
162
141
126
96
150
170
171
170
167
158
141
123
124
107
96
91
89
82
85
84
101
106
121
137
134
147
153
151
155
157
159
159
157
158
159
149
128
109
103
90
91
97
89
100
126
145
149
168
171
166
169
174
171
177
168
135
91
73
90
119
180
214
239
236
231
230
230
205
229
230
233
232
233
234
234
235
236
236
237
238
239
241
243
244
247
246
245
243
241
243
232
207
175
144
102
110
159
175
173
173
171
159
145
133
136
132
126
120
111
102
102
96
101
102
103
123
122
134
144
149
152
153
153
151
150
151
148
136
110
100
93
93
108
120
129
141
149
155
153
165
163
169
176
177
176
176
175
148
95
57
93
129
168
221
232
237
236
233
227
204
230
231
233
233
233
235
236
236
237
238
239
239
241
242
243
245
247
246
245
246
251
220
227
213
147
142
116
143
171
178
172
166
163
157
151
145
147
140
131
129
118
115
116
113
114
100
104
112
110
131
141
146
150
152
152
149
144
144
137
122
119
113
110
125
128
121
126
134
139
143
151
155
153
162
169
173
175
177
181
156
115
81
111
139
190
212
243
233
235
233
227
204
230
232
234
234
236
237
237
237
238
239
241
242
243
243
244
246
247
246
245
243
247
198
213
199
164
139
134
140
172
181
170
160
152
145
143
139
136
128
122
110
109
110
114
120
113
114
118
117
116
127
137
142
148
150
150
149
148
145
137
131
127
120
115
111
105
102
100
99
101
124
137
150
154
156
159
166
171
176
182
163
133
100
101
138
186
221
229
236
236
233
227
203
231
233
234
236
236
237
238
239
239
240
243
243
245
243
244
247
247
246
245
245
245
244
243
226
170
133
146
139
186
180
169
154
144
134
128
125
90
73
50
47
44
50
57
87
109
119
117
119
124
125
135
139
146
148
148
146
141
136
127
124
112
118
113
83
45
35
39
48
53
60
73
90
128
138
154
163
169
176
180
166
136
113
109
137
217
214
235
234
234
233
227
203
232
235
238
238
239
241
241
240
241
242
246
247
248
247
247
245
245
245
245
246
246
243
240
208
125
174
162
188
181
177
166
156
137
121
92
76
47
20
19
14
17
22
33
49
76
105
117
125
115
116
125
137
145
150
150
145
141
130
123
116
111
108
61
34
33
25
36
38
13
14
44
90
67
114
140
154
164
177
183
171
143
126
126
129
198
230
233
239
236
232
228
205
233
236
239
239
240
242
242
241
242
243
245
247
248
247
247
246
245
244
243
245
245
241
237
179
73
146
196
157
187
171
161
153
134
94
70
32
40
76
39
37
30
46
21
27
58
75
109
112
116
115
125
136
146
151
151
147
142
132
124
117
108
66
45
17
31
43
17
41
44
68
66
5
56
79
133
156
165
176
178
174
155
133
135
130
219
232
234
238
235
232
228
205
235
237
240
240
241
243
244
243
245
245
245
247
248
247
247
246
243
242
242
243
243
240
236
159
115
97
171
175
182
172
165
152
128
88
34
71
144
108
54
59
32
68
56
70
34
49
88
112
108
114
124
135
147
155
155
151
145
135
127
109
92
46
39
81
81
62
62
93
65
97
145
82
20
83
133
160
167
175
178
173
159
151
137
155
223
236
236
236
235
232
228
206
235
238
241
241
242
244
245
244
245
246
245
247
247
247
247
246
242
241
241
242
243
239
236
148
100
80
134
189
176
169
162
162
146
90
101
85
87
126
60
86
104
93
95
163
89
54
71
113
104
114
123
135
149
156
155
152
148
138
129
120
77
38
53
102
97
69
93
91
69
133
92
41
115
118
148
164
168
174
173
176
171
158
139
158
228
238
237
234
234
232
228
206
236
238
241
244
245
246
245
244
244
244
245
247
247
250
249
247
245
244
241
240
239
238
204
58
114
107
86
199
175
167
170
173
169
165
149
111
42
93
80
31
45
40
74
65
48
27
34
106
115
117
133
137
150
159
160
154
143
138
140
121
34
14
37
55
75
74
51
50
72
73
38
83
137
154
171
177
176
172
170
170
175
158
147
185
234
236
235
235
232
235
228
210
236
238
241
243
244
245
245
244
244
244
245
247
247
249
247
245
244
243
240
240
236
242
131
43
74
117
129
200
181
168
173
176
174
171
164
135
99
65
71
101
84
93
81
72
56
51
44
79
113
114
135
146
154
160
161
156
148
142
143
127
88
78
78
78
70
59
67
60
50
73
89
138
157
169
175
180
178
176
172
181
169
146
158
198
237
237
235
235
232
235
228
210
236
238
241
242
243
244
244
244
244
244
245
247
247
245
245
243
242
242
238
237
236
241
59
43
85
104
134
194
190
173
178
181
179
176
164
142
136
117
88
90
92
87
106
92
85
92
102
114
113
120
141
151
158
162
163
159
154
148
149
149
130
117
117
109
116
103
128
113
113
126
142
161
174
182
181
184
182
180
177
192
143
152
176
218
237
236
235
235
232
235
228
210
236
238
241
242
243
244
244
245
245
245
246
248
248
244
243
241
241
240
238
235
234
225
47
55
57
108
104
185
194
178
182
184
182
178
167
162
135
134
121
121
119
120
121
120
124
118
125
124
121
130
145
150
158
164
166
161
157
151
153
152
141
133
128
122
122
121
124
126
130
147
157
164
175
185
185
187
185
182
183
193
112
172
186
232
239
236
235
235
232
235
228
211
236
239
241
242
243
243
245
247
247
247
247
246
245
240
240
238
238
238
237
234
240
176
24
36
31
93
122
187
194
183
183
190
185
182
176
164
156
142
133
131
131
130
131
133
134
134
133
129
126
139
145
155
160
165
162
157
157
161
156
155
149
145
142
142
143
138
140
147
152
157
166
173
185
185
187
187
187
188
185
177
108
164
199
241
234
234
235
236
234
233
227
214
237
239
241
242
243
243
245
246
245
245
246
245
244
240
240
238
239
239
237
233
238
131
23
36
45
64
104
190
183
190
183
185
184
182
177
167
163
151
145
143
142
141
140
139
137
136
136
134
131
146
149
152
159
165
163
158
159
161
158
162
160
156
154
155
154
154
157
161
164
162
168
174
185
185
187
187
187
187
190
161
142
175
213
239
236
235
235
236
235
234
228
214
237
240
243
242
243
243
245
244
244
244
244
243
242
240
240
238
239
240
238
237
241
106
35
57
41
80
93
178
183
194
182
181
182
180
180
171
167
157
156
154
152
152
151
147
143
140
139
140
141
140
150
161
162
165
162
159
162
163
160
166
165
165
164
165
164
162
162
165
166
170
174
177
185
185
187
187
187
187
192
181
170
165
230
237
237
234
235
236
235
235
229
215
238
240
243
243
243
244
244
242
242
242
242
241
241
240
240
238
239
240
239
236
230
101
35
50
66
75
89
180
175
191
183
179
181
180
181
176
164
157
157
155
155
154
155
154
148
143
141
145
148
148
153
157
160
165
162
159
164
165
161
164
165
167
168
168
167
168
170
169
171
176
178
180
184
185
187
187
187
186
197
179
180
184
240
239
238
234
235
236
235
235
229
215
240
242
244
243
242
242
241
239
239
239
238
238
238
238
239
239
241
239
235
234
214
93
55
44
69
59
104
180
157
176
181
173
171
175
175
169
170
167
164
162
160
160
160
157
153
150
148
143
146
146
153
162
164
164
165
163
159
162
165
164
167
169
171
172
174
172
166
172
169
175
178
180
184
185
187
183
186
187
192
182
193
212
239
237
238
236
236
236
235
236
229
218
240
242
244
242
242
242
241
239
239
239
239
239
239
239
239
239
241
239
236
229
208
94
70
58
79
54
73
187
155
177
178
168
173
176
176
171
171
170
168
166
165
164
162
158
153
150
148
143
146
150
155
162
164
164
165
163
162
162
164
164
167
169
170
172
174
174
169
173
170
174
178
180
181
183
184
184
179
180
184
169
180
245
237
237
237
237
237
237
235
237
230
218
240
242
244
241
241
241
240
239
239
239
240
240
240
239
239
239
241
239
236
231
204
126
87
58
86
56
30
201
148
180
177
165
169
170
171
165
165
167
169
166
165
164
162
159
154
151
148
143
146
154
157
160
163
164
165
164
165
162
161
164
167
169
172
174
176
176
171
177
172
173
177
179
179
179
180
182
174
178
180
142
186
243
237
237
237
238
238
238
236
238
231
219
240
242
244
241
240
240
240
239
239
239
240
240
240
239
239
239
241
239
235
234
200
98
123
86
98
63
9
196
151
176
176
165
167
161
161
156
156
160
164
162
160
159
160
159
154
151
147
143
144
158
158
160
163
164
165
165
167
162
160
164
167
168
175
175
177
177
172
178
174
173
176
178
177
177
179
176
173
179
179
127
232
236
237
237
237
238
238
238
237
238
232
219
239
240
241
242
242
241
240
239
239
239
242
242
242
242
242
242
240
241
239
233
209
112
124
97
113
78
32
173
128
153
182
159
153
157
156
157
158
159
160
159
159
160
162
159
154
152
145
145
152
154
158
163
166
164
163
165
169
163
160
160
164
167
168
170
175
176
174
172
171
173
172
171
174
173
173
173
171
183
184
231
235
246
237
238
238
238
238
238
237
239
234
222
239
240
241
242
241
240
240
239
239
239
242
242
242
242
242
242
240
241
239
229
197
151
142
108
103
91
49
152
76
146
174
158
155
154
154
154
155
156
157
158
159
160
161
159
154
151
142
148
153
150
157
166
164
165
170
168
162
165
168
161
164
166
168
171
176
175
173
171
170
172
170
169
171
171
171
175
164
205
241
239
234
234
239
239
238
238
238
238
237
239
234
221
239
240
241
241
240
240
239
239
239
239
242
242
242
242
242
242
240
241
239
227
200
162
165
91
100
103
68
119
28
99
153
168
154
149
150
150
151
152
153
157
158
159
161
159
154
151
139
152
155
152
157
163
161
163
167
169
167
164
163
160
163
167
168
170
176
174
171
169
168
168
169
167
167
167
167
165
171
213
241
238
242
242
238
238
238
238
238
238
237
239
234
221
239
240
241
241
240
239
239
239
239
239
242
242
242
242
242
242
240
241
239
231
204
165
160
113
103
108
111
85
5
48
132
163
146
147
147
147
149
149
150
156
158
158
161
160
154
151
137
156
156
160
157
155
159
158
156
157
161
167
171
159
163
167
168
171
176
174
169
168
166
167
167
165
166
165
165
163
178
224
237
240
238
240
239
238
238
238
238
238
237
238
234
221
240
240
238
237
237
237
238
239
239
239
240
240
240
238
239
240
241
243
238
229
204
149
177
119
105
105
150
43
8
19
62
168
143
145
144
149
146
146
146
151
155
158
160
156
153
148
133
148
159
152
164
144
149
157
164
157
163
164
164
165
169
168
168
169
171
171
171
169
166
161
160
160
158
160
162
166
187
234
244
240
239
238
239
239
239
239
239
238
236
237
232
222
240
239
238
237
237
237
238
239
238
239
240
239
240
238
239
240
241
243
238
229
205
148
174
134
115
106
171
21
9
27
45
155
153
144
142
150
145
146
145
149
152
156
157
154
150
147
129
143
150
146
138
140
151
153
150
138
151
156
167
153
164
168
166
168
170
170
170
168
165
161
160
159
159
161
163
168
191
240
241
240
239
238
239
239
239
239
239
237
237
238
233
222
239
238
237
237
237
237
237
238
238
238
239
239
239
238
239
240
241
242
237
229
208
145
172
134
113
109
166
18
14
22
36
138
161
141
150
141
144
144
144
146
149
153
154
151
147
144
134
127
137
97
96
134
128
136
147
122
95
137
151
154
164
169
165
167
168
168
168
166
164
160
159
158
159
161
162
170
201
245
238
240
239
238
239
239
239
239
239
237
237
238
233
224
238
238
236
237
237
237
237
237
237
237
238
238
238
238
239
240
240
241
236
230
210
140
171
136
122
127
140
38
17
25
49
109
159
139
143
147
142
142
142
144
147
151
152
149
145
142
139
130
109
89
85
113
132
133
134
120
115
110
140
166
170
168
164
165
168
168
167
165
163
159
159
158
159
161
163
170
211
245
237
240
239
238
239
239
239
239
239
237
238
239
234
225
238
241
238
236
236
236
236
238
239
239
239
239
239
236
238
240
242
239
239
222
200
158
166
148
118
144
128
44
21
31
50
79
165
149
139
143
142
146
144
144
145
145
144
142
142
142
138
135
127
123
124
124
120
122
133
139
135
143
153
162
164
166
165
164
161
162
162
162
160
156
156
156
157
160
164
167
229
240
241
239
239
239
239
239
239
238
238
238
237
238
233
224
238
241
238
236
236
236
236
238
239
239
239
239
239
237
239
240
242
239
240
223
199
156
167
160
128
146
118
47
28
37
48
47
169
152
143
141
142
146
143
142
143
144
144
143
142
142
136
141
140
130
129
128
127
124
130
140
146
151
160
160
164
166
166
165
162
162
162
161
160
157
157
157
157
160
164
172
242
239
240
239
239
239
239
239
239
238
238
238
238
239
234
225
238
241
238
236
236
236
236
238
239
239
239
239
239
238
239
242
243
240
240
221
204
149
172
152
138
155
117
51
36
41
46
47
129
164
142
139
141
145
143
140
141
142
143
144
143
143
141
148
149
139
136
132
125
119
132
149
148
150
156
160
163
165
167
166
164
162
161
160
159
158
158
158
157
160
162
190
245
239
240
239
239
239
239
239
239
238
238
238
238
239
235
225
238
241
238
236
236
236
236
238
239
239
239
239
239
238
240
241
243
241
242
223
201
153
171
151
143
143
124
51
38
37
54
50
94
164
148
135
140
144
142
138
138
139
142
144
144
145
148
152
149
145
140
134
130
120
127
152
159
158
164
159
162
164
167
166
164
162
161
160
159
158
159
159
157
161
160
210
237
241
240
239
239
239
240
240
240
238
238
238
239
240
235
226
235
236
237
236
236
236
237
238
238
238
235
237
237
241
239
240
241
240
238
214
196
172
164
152
142
126
131
89
40
43
47
57
56
160
158
140
146
143
141
141
141
142
144
145
145
146
152
153
158
158
150
135
128
130
142
150
166
165
163
159
162
168
166
165
164
160
158
159
159
159
158
158
161
151
163
229
238
238
240
242
242
241
239
239
239
240
239
238
237
236
235
229
236
237
238
236
236
236
237
238
238
237
235
237
237
240
240
239
240
239
237
213
201
179
143
150
154
111
114
92
43
42
54
52
41
128
156
145
139
138
136
139
141
142
142
143
147
148
145
155
149
130
116
111
107
107
115
115
121
144
161
169
167
163
163
163
161
160
158
158
158
158
158
158
154
163
180
233
239
239
241
241
241
241
239
239
239
240
239
239
238
237
235
230
237
238
238
236
236
236
236
237
237
237
235
237
237
240
240
239
239
239
236
212
199
181
133
152
155
98
109
112
63
47
58
50
23
93
155
153
139
138
137
139
140
141
140
139
139
139
139
132
112
94
98
91
90
94
94
101
113
118
123
160
166
164
160
159
158
157
157
157
157
157
157
157
161
156
208
240
240
241
242
241
241
241
239
239
239
241
240
239
239
238
236
231
237
238
239
237
236
236
236
236
236
236
235
237
237
240
240
240
239
238
236
211
192
175
137
165
144
90
81
107
81
53
58
53
16
57
139
137
145
143
141
139
139
140
140
135
126
121
117
102
91
90
87
89
93
98
92
95
91
98
102
116
142
150
158
157
155
156
157
157
157
157
156
157
153
171
225
241
242
242
242
241
241
241
239
239
239
241
241
240
239
238
236
232
237
237
237
236
237
238
238
238
237
236
238
238
238
239
238
237
236
240
235
210
198
164
148
163
133
74
75
109
85
59
65
56
13
10
128
144
145
148
142
142
141
137
135
129
117
100
90
64
33
23
31
48
51
47
59
42
39
27
38
63
99
116
123
137
147
153
152
153
152
156
158
154
160
187
238
242
241
240
240
239
239
239
239
239
239
241
241
240
238
237
236
232
237
237
237
236
237
238
238
239
238
237
238
238
238
239
238
236
236
238
233
207
196
159
169
149
134
88
62
105
107
63
70
38
10
1
58
149
142
146
143
140
138
136
127
104
51
21
29
41
46
44
43
49
41
38
45
46
48
54
39
48
42
44
73
133
143
152
150
153
155
160
157
153
165
216
240
241
241
240
239
239
239
239
239
239
239
241
240
239
238
237
236
232
237
237
237
236
237
238
239
239
239
238
238
238
238
237
237
236
235
238
231
196
188
160
181
146
105
92
58
100
101
82
82
32
14
5
2
126
142
144
141
137
135
132
124
111
111
96
102
112
115
122
111
105
94
95
95
102
109
118
114
111
109
109
131
138
147
147
149
154
157
159
154
159
191
240
240
240
239
239
239
239
239
239
239
239
239
240
239
238
238
237
236
231
237
237
237
236
237
238
239
240
239
238
238
238
238
237
237
236
235
238
229
186
176
167
174
135
97
77
91
98
106
97
77
26
7
6
4
40
150
144
139
135
132
130
128
129
121
115
107
116
116
123
121
125
124
132
128
132
121
125
119
115
123
138
151
141
146
143
146
154
157
153
155
166
228
240
240
240
239
238
238
239
239
239
239
239
239
239
239
238
238
237
236
231
237
238
239
237
237
237
237
238
238
238
237
237
237
237
235
234
236
234
203
171
174
181
174
107
90
69
87
88
108
97
70
19
9
2
4
2
76
148
137
134
133
131
128
131
133
127
120
117
113
118
120
121
118
119
121
124
125
124
125
142
144
148
148
149
147
145
150
154
157
153
157
214
244
241
241
240
240
240
242
242
242
242
242
242
242
242
242
242
240
239
238
232
236
237
238
236
236
236
237
237
237
237
237
237
237
236
235
234
232
219
171
175
174
198
143
102
95
76
59
92
107
108
73
31
8
2
4
4
15
113
131
130
130
130
129
132
133
129
127
125
122
120
117
113
111
112
115
119
126
133
140
142
146
150
152
153
151
147
145
147
148
154
202
238
242
241
241
240
240
240
241
242
242
242
242
242
242
242
242
242
241
239
238
232
236
237
237
236
236
236
236
237
237
237
237
237
237
237
235
234
233
180
177
178
179
191
131
120
120
78
53
84
93
118
85
37
10
2
3
4
6
43
125
127
128
130
131
133
135
130
125
123
120
121
117
114
109
110
112
114
119
131
139
146
150
154
152
151
150
153
147
142
152
186
228
243
241
241
241
241
241
241
241
241
241
241
241
241
241
241
241
241
239
238
237
233
235
237
237
235
235
235
235
235
235
235
236
236
236
236
235
237
200
174
170
170
186
166
146
110
133
79
56
80
82
117
100
35
14
1
3
3
3
23
84
121
126
131
132
135
136
131
134
131
128
119
120
123
114
112
115
119
128
135
141
149
152
157
147
146
145
142
139
154
177
208
238
236
242
241
241
242
242
242
242
241
241
241
241
241
241
241
241
241
240
238
237
232
233
233
233
233
233
234
234
234
235
236
235
236
237
235
237
222
177
154
176
176
191
167
121
115
137
78
66
68
78
105
104
39
17
4
6
5
3
21
65
104
118
123
130
130
137
143
140
138
134
133
135
137
129
129
133
137
140
145
148
151
153
154
153
153
144
137
154
169
179
203
241
243
242
242
242
240
240
240
240
241
240
241
240
239
238
239
239
239
239
238
236
232
233
233
233
232
232
233
232
232
233
233
233
234
235
233
232
200
183
176
151
147
176
161
108
103
144
98
75
69
81
89
103
52
19
7
6
4
3
25
65
81
100
116
128
127
134
138
139
138
137
136
138
139
142
145
149
152
155
158
160
153
152
152
149
142
144
148
161
167
161
203
238
242
240
240
241
239
239
239
239
239
239
239
239
237
237
237
237
237
236
235
233
229
229
229
229
229
228
230
230
230
230
231
231
231
233
235
232
186
160
123
139
167
182
157
106
124
131
112
70
51
81
83
90
54
45
5
3
1
5
29
62
76
91
97
114
124
130
135
137
139
141
141
144
145
147
149
153
156
157
156
156
156
153
149
147
144
139
166
154
153
161
201
236
240
238
238
238
238
238
238
237
237
237
237
236
236
235
235
235
235
233
232
229
226
227
227
228
227
227
228
229
228
229
230
229
230
231
224
221
171
123
111
161
171
177
143
113
132
125
125
75
78
83
76
94
24
17
21
14
10
5
32
59
73
86
94
111
122
127
132
137
140
143
146
147
149
153
156
160
163
163
161
158
159
153
147
148
143
162
152
150
150
162
199
235
238
237
236
236
236
236
236
236
235
235
235
235
234
233
232
232
232
230
229
228
223
228
228
228
226
226
226
226
225
225
226
227
227
227
229
211
163
116
120
127
172
177
134
124
98
103
119
116
83
74
65
86
24
16
24
28
23
9
40
64
74
84
97
103
103
121
128
136
143
144
145
147
147
155
157
159
159
158
157
156
148
147
147
141
157
150
142
139
151
165
194
234
233
232
233
233
232
231
231
232
231
230
230
230
230
231
227
227
226
225
224
223
220
225
225
225
223
223
223
223
224
224
224
225
225
225
219
201
157
109
87
151
152
171
142
95
108
99
116
108
109
91
63
79
28
16
16
31
27
40
75
78
81
87
100
103
103
108
129
127
137
138
146
147
147
149
151
152
153
151
151
150
144
149
150
156
130
136
136
141
152
165
193
229
229
227
228
227
228
228
228
228
227
226
226
226
226
226
224
223
223
222
221
219
215
222
222
222
219
219
219
220
220
220
220
222
222
222
221
199
146
116
106
154
136
157
129
84
103
118
114
109
104
108
92
88
41
32
12
25
16
71
86
92
104
107
114
114
111
100
104
116
127
133
138
139
140
139
140
142
143
142
142
140
141
140
142
127
131
134
137
142
154
166
190
220
223
222
222
222
224
224
224
223
222
221
220
220
220
220
219
219
218
217
216
214
210
220
219
220
217
216
216
217
219
218
219
220
219
220
207
198
158
120
134
123
144
147
109
90
110
131
113
97
105
109
105
86
40
13
9
7
5
51
76
80
77
87
104
117
126
128
107
106
121
129
128
129
130
132
134
136
136
136
135
135
140
132
125
121
131
134
139
142
153
167
189
215
220
219
219
218
221
222
222
220
219
218
216
215
215
216
216
215
215
214
213
211
208
217
222
219
217
217
217
217
218
218
218
218
218
219
209
197
161
102
115
98
148
130
97
92
92
105
76
101
101
99
114
77
53
10
11
21
45
62
73
89
108
116
119
117
117
122
127
122
118
114
121
121
120
122
123
123
130
130
132
127
117
119
120
126
129
134
140
148
156
164
182
215
215
215
216
217
218
218
218
218
218
217
216
215
215
214
213
213
211
211
210
210
206
217
220
218
216
216
216
217
217
217
217
217
217
218
204
197
162
80
109
109
131
124
93
79
121
106
74
92
91
111
109
104
48
40
34
64
69
116
145
165
167
167
163
160
162
158
155
144
141
138
124
124
124
126
121
119
105
90
84
114
105
113
121
127
130
135
141
147
156
164
180
210
215
215
216
217
218
218
218
218
217
216
215
214
214
214
214
213
212
211
210
210
207
216
220
218
215
215
215
215
216
216
216
216
216
218
192
185
130
78
104
111
163
104
94
82
102
63
66
76
56
109
109
107
37
67
125
138
151
137
119
106
104
110
115
112
107
100
97
97
94
90
88
87
87
85
84
74
76
97
110
93
101
112
123
129
132
137
141
147
155
163
177
204
213
213
214
215
217
217
217
217
217
216
215
215
215
215
214
214
213
211
210
210
207
215
220
217
214
214
214
215
217
216
216
216
216
218
187
164
117
80
106
136
153
82
88
72
90
65
69
73
51
91
135
136
159
108
80
44
45
54
74
86
98
108
117
113
107
105
102
94
91
88
86
86
86
84
72
84
107
97
89
104
109
117
124
130
134
138
141
146
155
163
175
200
214
213
213
214
217
217
218
218
217
215
215
215
215
215
215
215
213
211
210
210
206
220
219
218
218
219
219
217
216
217
218
217
216
218
189
145
94
64
98
144
135
74
50
54
93
54
59
74
76
145
184
129
85
60
48
29
48
58
74
87
98
106
107
106
105
101
99
97
94
92
86
86
90
87
88
109
88
87
96
101
116
120
125
132
134
137
141
144
150
158
166
195
189
210
215
214
213
214
214
214
214
214
214
214
214
214
216
216
215
213
211
209
206
219
218
217
218
218
218
216
216
217
218
218
218
220
185
127
82
94
96
135
107
53
49
60
93
84
64
142
167
113
108
98
77
90
30
33
53
62
78
90
100
108
110
108
107
104
101
102
96
91
79
99
90
105
102
86
109
97
105
111
118
122
127
132
134
137
141
142
149
159
168
186
181
224
210
217
215
214
214
214
214
213
214
214
214
214
216
215
214
213
211
209
208
217
217
216
215
215
215
215
216
216
218
222
220
223
189
125
83
69
129
104
57
63
55
84
68
72
144
128
62
34
106
111
81
88
22
51
52
67
84
96
102
110
111
111
110
106
103
96
93
89
107
108
122
98
94
121
91
100
107
113
121
125
131
132
134
137
139
141
148
155
165
163
194
206
224
213
216
214
214
213
213
213
213
214
214
214
215
214
213
212
211
209
208
219
217
216
215
215
215
215
216
217
218
222
222
227
162
136
94
74
125
71
59
51
71
75
93
124
59
52
31
35
116
125
108
55
35
54
59
71
87
100
104
110
113
113
111
108
105
101
105
108
122
112
89
98
127
98
105
109
117
123
123
128
134
132
134
137
139
140
147
157
171
146
189
188
220
215
216
215
214
212
212
212
212
214
214
214
214
214
212
212
211
209
206
216
220
219
215
215
215
213
213
218
222
227
222
203
184
131
76
125
75
39
50
32
74
148
89
37
44
16
31
51
131
155
100
15
34
61
70
82
95
102
112
116
117
116
116
110
106
111
137
127
97
100
107
128
118
107
111
119
117
116
123
124
125
131
133
137
141
141
147
154
165
123
195
182
219
215
215
210
210
212
213
212
211
211
213
213
212
211
210
210
209
208
206
215
219
217
215
215
215
218
220
215
212
220
212
197
169
132
140
102
54
23
60
95
124
128
55
23
48
17
52
89
145
159
69
23
41
60
80
82
98
111
116
118
120
121
115
110
119
144
117
115
110
113
119
133
111
121
122
119
119
118
122
124
126
130
133
136
139
140
144
153
160
119
192
185
218
210
216
217
214
213
213
213
212
211
213
213
212
211
211
209
209
208
206
215
220
218
217
218
218
215
213
219
223
221
206
183
137
137
105
57
37
62
104
102
73
107
31
39
59
36
60
118
138
152
19
24
50
77
82
96
106
112
119
122
124
121
120
145
136
117
122
112
114
115
142
120
121
118
121
121
120
120
122
124
126
128
131
134
137
136
142
150
135
112
190
188
210
192
203
214
217
214
214
214
212
211
213
213
212
211
211
208
208
207
206
215
219
217
218
218
218
214
213
220
227
213
188
152
113
133
79
52
49
69
98
50
41
114
25
50
51
30
132
106
132
141
12
62
55
78
92
95
111
122
123
124
125
136
145
125
128
125
119
116
115
128
140
119
123
122
125
122
121
121
122
124
126
127
130
134
136
135
139
147
108
104
184
192
200
169
182
207
219
216
215
214
212
211
212
213
212
211
210
208
207
206
205
221
221
221
221
219
223
211
205
220
213
200
181
161
147
113
85
67
83
82
63
56
26
93
43
44
42
85
142
112
151
115
7
45
64
90
90
108
108
119
126
131
145
136
131
139
133
122
118
116
120
154
131
122
125
130
130
125
123
122
122
124
127
126
128
131
131
139
137
130
88
106
173
205
197
152
167
194
212
224
218
214
217
216
216
216
216
215
215
213
212
210
207
222
223
222
226
221
218
205
198
194
210
205
205
190
124
116
86
111
106
92
76
53
47
96
33
44
49
147
135
98
175
149
26
95
60
92
103
107
119
119
140
142
132
140
135
136
133
122
125
124
140
142
119
124
126
129
128
124
122
121
122
125
126
125
128
130
135
132
125
109
77
116
167
210
186
137
156
181
196
210
219
222
218
217
218
217
218
217
216
215
214
212
210
217
217
217
213
206
203
190
196
177
197
197
170
119
110
89
132
140
125
107
105
100
84
102
45
60
108
165
117
130
163
136
10
75
76
106
117
122
140
156
128
133
140
132
142
132
126
124
133
135
154
117
121
128
127
127
125
122
121
119
122
124
125
123
126
129
133
127
124
86
71
144
170
212
175
117
150
173
185
198
209
219
219
220
220
220
220
220
218
218
217
215
214
209
209
209
205
204
206
188
163
176
161
132
106
72
117
146
146
140
140
133
118
113
120
109
91
92
157
156
63
177
151
126
13
77
91
126
137
140
130
128
152
142
129
131
131
132
122
130
123
155
131
124
127
131
129
126
123
121
119
118
120
123
125
123
125
127
131
124
108
58
87
147
171
203
171
110
140
160
169
186
195
207
221
221
221
221
222
221
220
220
220
217
216
197
196
194
195
193
193
193
169
142
145
165
179
186
182
176
171
159
152
140
127
126
135
114
88
126
168
112
112
162
152
144
118
138
129
126
122
136
141
139
131
132
131
131
127
137
133
130
148
134
119
123
129
129
128
125
123
123
124
125
122
124
125
123
125
127
124
110
79
49
120
152
184
206
142
103
135
145
161
172
185
189
201
215
219
223
223
221
222
220
219
218
218
193
192
191
191
190
189
186
169
134
132
150
169
166
165
165
166
162
160
153
144
142
154
141
133
168
172
121
174
148
158
152
83
164
112
136
145
127
125
132
132
132
131
130
127
133
132
141
144
128
122
126
129
129
127
124
123
124
125
126
124
124
125
123
123
123
125
102
58
83
135
155
198
197
130
112
126
136
148
159
170
175
186
192
207
222
220
223
225
222
222
220
219
187
186
186
185
184
183
184
172
155
130
117
146
152
142
141
142
142
145
145
140
140
158
139
147
172
137
125
163
154
144
190
135
99
142
121
121
123
132
132
132
132
131
131
133
133
138
150
137
126
128
129
129
128
126
124
123
127
127
129
128
125
123
122
120
117
109
90
100
103
133
147
194
196
110
115
126
134
143
151
163
168
178
182
190
196
218
221
228
225
223
223
222
183
182
181
181
180
179
175
173
159
140
126
136
140
140
136
130
127
134
137
136
132
152
141
149
175
68
190
150
119
105
46
164
122
155
108
104
123
119
120
130
132
131
133
143
139
147
150
131
132
132
131
128
128
126
123
123
129
129
130
131
126
122
122
117
114
98
71
143
90
133
152
199
198
95
116
118
123
131
138
149
154
164
170
177
185
196
203
209
223
225
225
223
