P2
# CREATOR: GIMP PNM Filter Version 1.1
92 112
255
153
153
153
153
153
153
153
153
153
153
153
153
153
153
153
152
152
152
152
152
152
152
152
152
152
152
152
153
153
153
153
153
153
153
153
153
153
153
154
154
154
155
155
155
154
154
153
153
153
153
153
153
153
153
153
153
153
153
153
153
153
153
153
153
153
153
153
153
153
153
153
153
153
153
153
153
153
153
153
153
153
153
153
153
153
153
153
153
153
153
153
153
153
153
153
153
153
153
153
153
153
153
153
153
153
153
153
153
153
153
153
153
153
152
152
152
152
153
153
153
153
153
153
153
153
153
153
153
155
157
159
160
161
163
163
162
161
159
157
155
154
153
153
153
153
153
153
153
153
153
153
153
153
153
153
153
153
153
153
153
153
153
153
153
153
153
153
153
153
153
153
153
153
153
153
153
153
153
153
153
153
153
153
153
153
153
153
153
153
153
153
153
153
153
153
153
153
153
153
153
153
153
153
153
153
153
153
153
153
153
153
153
153
153
153
153
153
154
156
159
163
167
171
175
177
179
179
178
174
171
166
162
158
155
153
153
153
153
153
153
153
153
153
153
153
153
153
153
153
153
153
153
153
153
153
153
153
153
153
153
153
153
153
153
153
153
153
153
153
153
153
153
153
153
153
153
153
153
153
153
153
153
153
153
153
153
153
153
153
153
153
153
153
153
153
153
153
153
153
153
153
153
153
153
153
153
153
154
157
161
166
172
179
185
192
197
201
201
201
198
194
188
182
173
167
161
157
154
153
153
153
153
153
153
153
153
153
153
153
153
153
153
153
153
153
153
153
153
153
153
153
153
153
153
153
153
153
153
153
153
153
153
153
153
153
153
153
153
153
153
153
153
153
153
153
153
153
153
153
153
153
153
153
153
153
153
153
153
153
153
153
153
153
153
153
153
154
155
158
163
169
177
184
194
201
210
215
221
223
224
224
222
217
211
203
193
183
175
167
160
156
154
153
153
153
153
153
153
153
153
153
153
153
153
153
153
153
153
153
153
153
153
153
153
153
153
153
153
153
153
153
153
153
153
153
153
153
153
153
153
153
153
153
153
153
153
153
153
153
153
153
153
153
153
153
153
153
153
153
153
153
153
153
153
153
154
155
158
161
166
172
180
189
197
208
216
225
231
236
239
242
244
243
242
238
233
226
217
205
194
183
173
164
158
155
153
153
153
153
153
153
153
153
153
153
153
153
153
153
153
153
153
153
153
153
153
153
153
153
153
153
153
153
153
153
153
153
153
153
153
153
153
153
153
153
153
153
153
153
153
153
153
153
153
153
153
153
153
153
153
153
153
153
153
153
153
155
159
164
170
177
185
194
202
212
220
229
236
242
246
249
250
251
252
252
251
250
248
243
237
228
216
203
191
178
167
160
155
153
153
153
153
153
153
153
153
153
153
153
153
153
153
153
153
153
153
153
153
153
153
153
153
153
153
153
153
153
153
153
153
153
153
153
153
153
153
153
153
153
153
153
153
153
153
153
153
153
153
153
153
153
153
153
153
153
153
154
158
163
172
180
189
199
208
217
225
233
238
244
249
251
252
254
254
254
254
254
254
254
253
252
248
243
235
225
211
197
181
171
161
155
153
153
153
153
153
153
153
153
153
153
153
153
153
153
153
153
153
153
153
153
153
153
153
153
153
153
153
153
153
153
153
153
153
153
153
153
153
153
153
153
153
153
153
153
153
153
153
153
153
153
153
153
153
153
153
153
155
160
168
177
189
201
212
221
230
236
242
246
250
252
253
254
255
255
255
255
255
255
255
255
255
254
253
252
248
241
230
216
199
183
169
160
155
153
153
153
153
153
153
153
153
153
153
153
153
153
153
153
153
153
153
153
153
153
153
153
153
153
153
153
153
153
153
153
153
153
153
153
153
153
153
153
153
153
153
153
153
153
153
153
153
153
153
153
153
153
153
155
160
169
181
194
210
220
232
239
245
248
251
253
254
254
255
255
255
255
255
255
255
255
255
255
255
255
255
254
253
250
245
233
218
199
181
167
157
154
153
153
153
153
153
153
153
153
153
153
153
153
153
153
153
153
153
153
153
153
153
153
153
153
153
153
153
153
153
153
153
153
153
153
153
153
153
153
153
153
153
153
153
153
153
153
153
153
153
153
153
153
154
159
169
182
197
214
229
239
246
250
252
253
254
254
255
255
255
255
255
255
255
255
255
255
255
255
255
255
255
255
255
254
251
245
231
213
193
175
163
155
153
153
153
153
153
153
153
153
153
153
153
153
153
153
153
153
153
153
153
153
153
153
153
153
153
153
153
153
153
153
153
153
153
153
153
153
153
153
153
153
153
153
153
153
153
153
153
153
153
153
153
153
157
166
180
196
215
231
243
250
252
254
254
255
255
255
255
255
255
255
255
255
255
255
255
255
255
255
255
255
255
255
255
255
254
251
243
227
206
184
168
157
153
153
153
153
153
153
153
153
153
153
153
153
153
153
153
153
153
153
153
153
153
153
153
153
153
153
153
153
153
153
153
153
153
153
153
153
153
153
153
153
153
153
153
153
153
153
153
153
153
153
153
155
162
175
193
213
231
244
251
254
255
255
255
255
255
255
255
255
255
255
255
255
255
255
255
255
255
255
255
255
255
255
255
255
255
253
248
236
216
195
174
161
154
153
153
153
153
153
153
153
153
153
153
153
153
153
153
153
153
153
153
153
153
153
153
153
153
153
153
153
153
153
153
153
153
153
153
153
153
153
153
153
153
153
153
153
153
153
153
153
153
153
153
157
168
185
205
225
242
251
253
255
255
255
255
255
255
255
255
255
255
255
255
255
255
255
255
255
255
255
255
255
255
255
255
255
255
254
252
243
226
204
181
163
155
153
153
153
153
153
153
153
153
153
153
153
153
153
153
153
153
153
153
153
153
153
153
153
153
153
153
153
153
153
152
152
152
153
153
153
153
153
153
153
153
153
153
153
153
153
153
153
153
153
155
161
175
195
217
236
248
253
255
255
255
255
255
255
255
255
255
255
255
255
255
255
255
255
255
255
255
255
255
255
255
255
255
255
255
255
253
247
232
211
187
167
156
153
153
153
153
153
153
153
153
153
153
153
153
153
153
153
153
153
153
153
153
153
153
153
153
153
152
152
152
152
151
151
148
153
153
153
153
153
153
153
153
153
153
153
153
153
153
153
153
153
155
165
181
203
225
243
251
255
255
255
255
255
255
255
255
255
255
255
255
255
255
255
255
255
255
255
255
255
255
255
255
255
255
255
255
255
254
249
237
217
193
172
158
153
153
153
153
153
153
153
153
153
153
153
153
153
153
153
153
153
153
153
153
153
153
153
153
153
152
152
152
152
150
149
146
153
153
153
153
153
153
153
153
153
153
153
153
153
153
153
153
153
157
168
187
211
233
247
253
255
255
255
255
255
255
255
255
255
255
255
255
255
255
255
255
255
255
255
255
255
255
255
255
255
255
255
255
255
254
251
240
223
198
175
160
154
153
153
153
153
153
153
153
153
153
153
153
153
153
153
153
153
153
153
153
153
153
153
153
153
153
152
152
152
151
151
149
153
153
153
153
153
153
153
153
153
153
153
153
153
153
153
153
154
158
171
192
215
237
249
254
255
255
255
255
255
255
254
254
254
255
255
255
255
255
255
255
255
255
254
254
254
254
254
255
255
255
255
255
255
254
252
243
226
203
179
162
154
153
153
153
153
153
153
153
153
153
153
153
153
153
153
153
153
153
153
153
153
153
153
153
153
153
153
153
153
153
152
152
153
153
153
153
153
153
153
153
153
153
153
153
153
153
153
153
154
159
174
196
219
239
251
254
255
255
255
255
255
255
254
254
254
255
255
255
255
255
255
255
255
255
254
253
252
252
253
254
254
255
255
255
255
255
252
245
230
207
182
164
155
153
153
153
153
153
153
153
153
153
153
153
153
153
153
153
153
153
153
153
153
153
153
153
153
153
153
153
153
153
153
153
153
153
153
153
153
153
153
153
153
153
153
153
153
153
153
153
154
159
175
197
221
240
251
254
255
255
255
255
255
254
254
253
254
255
255
255
255
255
255
255
255
254
253
252
251
251
252
253
254
255
255
255
255
255
253
247
233
211
187
167
156
153
153
153
153
153
153
153
153
153
153
153
153
153
153
153
153
153
153
153
153
153
153
153
153
153
153
153
153
153
153
153
153
153
153
153
153
153
153
153
153
153
153
153
153
153
153
153
154
160
175
198
221
241
251
254
255
255
255
255
255
254
253
253
254
255
255
255
255
255
255
255
255
254
254
253
252
252
252
253
254
255
255
255
255
255
253
249
236
215
190
169
157
153
153
153
153
153
153
153
153
153
153
153
153
153
153
153
153
153
153
153
153
153
153
153
153
153
153
153
153
153
153
153
153
153
153
153
153
153
153
153
153
153
153
153
153
153
153
153
153
160
174
197
220
240
251
254
255
255
255
255
255
254
254
253
254
255
255
255
255
255
255
255
255
255
255
254
254
253
253
253
255
255
255
255
255
255
254
249
237
216
193
171
158
153
153
153
153
153
153
153
153
153
153
153
153
153
153
153
153
153
153
153
153
153
153
153
153
153
153
153
153
153
153
153
153
153
153
153
153
153
153
153
153
153
153
153
153
153
153
153
154
159
173
194
218
238
249
254
255
255
255
255
255
254
254
253
254
255
255
255
255
255
255
255
255
255
255
255
255
255
254
254
255
255
255
255
255
255
254
251
239
218
195
172
159
154
153
153
153
153
153
153
153
153
153
153
153
153
153
153
153
153
153
153
153
153
153
153
153
153
153
153
153
153
153
153
153
153
153
153
153
153
153
153
153
153
153
153
153
153
153
153
153
158
171
191
215
235
249
254
255
255
255
255
255
254
254
253
254
255
255
255
255
255
255
255
255
255
255
255
255
255
255
255
255
255
255
255
255
255
254
250
239
219
195
172
158
153
153
153
153
153
153
153
153
153
153
153
153
153
153
153
153
153
153
153
153
153
153
153
153
153
153
153
153
153
153
153
153
153
153
153
153
153
153
153
153
153
153
153
153
153
153
153
153
156
167
186
210
231
246
253
255
255
255
255
255
255
254
254
254
255
255
255
255
255
255
255
255
255
255
255
255
255
255
255
255
255
255
255
255
255
254
250
239
219
195
173
159
154
153
153
153
153
153
153
153
153
153
153
153
153
153
153
153
153
153
153
153
153
153
153
153
153
153
153
153
153
153
153
153
153
153
153
153
153
153
153
153
153
153
153
153
153
153
153
153
155
163
181
203
226
243
252
254
255
255
255
255
255
255
254
254
254
255
255
255
255
255
255
255
255
255
255
255
255
255
255
255
255
255
255
255
255
254
249
237
217
193
171
158
154
153
153
153
153
153
153
153
153
153
153
153
153
153
153
153
153
153
153
153
153
153
153
153
153
153
153
153
153
153
153
153
153
153
153
153
153
153
153
153
153
153
153
153
153
153
153
153
154
161
175
197
219
239
249
254
255
255
255
255
255
255
254
254
254
255
255
255
255
255
255
255
255
255
255
255
255
255
255
255
255
255
255
255
255
253
249
236
215
190
169
157
153
153
153
153
153
153
153
153
153
153
153
153
153
153
153
153
153
153
153
153
153
153
153
153
153
153
153
153
153
153
153
153
153
153
153
153
153
153
153
153
153
153
153
153
153
153
153
153
153
157
170
188
211
232
246
253
255
255
255
255
255
255
255
254
254
254
254
255
255
255
255
255
255
255
255
255
255
255
255
255
255
255
255
255
255
253
247
232
210
186
166
156
153
153
153
153
153
153
153
153
153
153
153
153
153
153
153
153
153
153
153
153
153
153
153
153
153
153
153
153
153
153
153
153
153
153
153
153
153
153
153
153
153
153
153
153
153
153
153
153
153
155
164
180
202
222
240
250
254
255
255
255
255
255
255
255
254
254
254
254
254
254
255
255
255
255
255
255
255
255
255
255
255
255
255
255
255
252
245
229
206
183
164
155
153
153
153
153
153
153
153
153
153
153
153
153
153
153
153
153
153
153
153
153
153
153
153
153
153
153
153
153
153
153
153
153
153
153
153
153
153
153
153
153
153
153
153
153
153
153
153
153
153
154
160
172
190
212
231
245
252
254
255
255
255
255
255
255
255
254
254
254
254
254
254
254
255
254
254
255
254
255
255
255
255
255
255
255
254
251
241
223
200
177
161
154
153
153
153
153
153
153
153
153
153
153
153
153
153
153
153
153
153
153
153
153
153
153
153
153
153
153
153
153
153
153
153
153
153
153
153
153
153
153
153
153
153
153
153
153
153
153
153
153
153
153
156
164
180
199
220
237
248
253
255
255
255
255
255
255
255
255
254
254
254
254
254
254
254
254
255
255
255
255
255
255
255
255
255
255
253
249
237
219
194
173
158
154
153
153
153
153
153
153
153
153
153
153
153
153
153
153
153
153
153
153
153
153
153
153
153
153
153
153
153
153
153
153
153
153
153
153
153
153
153
153
153
153
153
153
153
153
153
153
153
153
153
153
153
159
169
187
207
226
241
250
253
254
255
255
255
255
255
255
255
255
255
254
254
255
255
255
255
255
255
255
255
255
255
255
255
255
253
246
231
210
188
167
155
153
153
153
153
153
153
153
153
153
153
153
153
153
153
153
153
153
153
153
153
153
153
153
153
153
153
153
153
153
153
153
153
152
152
153
153
153
153
153
153
153
153
153
153
153
153
153
153
153
153
153
153
155
162
175
192
211
230
243
250
253
255
255
255
255
255
255
255
255
255
255
255
255
255
255
255
255
255
255
255
255
255
255
255
254
251
243
225
203
180
164
155
153
153
153
153
153
153
153
153
153
153
153
153
153
153
153
153
153
153
153
153
153
153
153
153
153
153
153
153
153
153
153
153
153
153
153
153
153
153
153
153
153
153
153
153
153
153
153
153
153
153
153
153
153
156
164
179
196
215
231
244
251
253
254
255
255
255
255
255
255
255
255
255
255
255
255
255
255
255
255
255
255
255
255
255
253
248
235
215
193
173
160
154
153
153
153
153
153
153
153
153
153
153
153
153
153
153
153
153
153
153
153
153
153
153
153
153
153
153
153
153
153
153
153
153
153
153
153
153
153
153
153
153
153
153
153
153
153
153
153
153
153
153
153
153
153
153
157
167
181
199
218
233
245
251
253
254
255
255
255
255
255
255
255
255
255
255
255
255
255
255
255
255
255
255
255
253
252
242
227
207
184
167
157
153
153
153
153
153
153
153
153
153
153
153
153
153
153
153
153
153
153
153
153
153
153
153
153
153
153
153
153
153
153
153
153
153
153
153
153
153
153
153
153
153
153
153
153
153
153
153
153
153
153
153
153
153
153
153
154
159
171
186
205
224
237
245
250
252
254
254
255
255
255
255
255
255
255
255
255
255
255
255
255
255
255
254
254
252
247
236
218
197
177
162
155
153
153
153
153
153
153
153
153
153
153
153
153
153
153
153
153
153
153
153
153
153
153
153
153
153
153
153
153
153
153
153
153
153
153
153
153
153
153
153
153
153
153
153
153
153
153
153
153
153
153
153
153
153
153
153
153
156
166
183
200
216
232
241
247
251
252
253
254
254
254
255
255
255
255
255
255
255
254
254
255
255
254
254
253
250
243
231
215
195
177
162
155
153
153
153
153
153
153
153
153
153
153
153
153
153
153
153
153
153
153
153
153
153
153
153
153
153
153
153
153
153
153
153
153
153
153
153
153
153
153
153
153
153
153
153
153
153
153
153
153
153
153
153
153
153
153
153
154
159
172
187
204
222
233
243
247
250
251
252
253
253
254
254
255
255
255
255
255
254
254
254
254
254
254
253
252
249
243
233
219
202
185
171
161
155
154
153
153
153
153
153
153
153
153
153
153
153
153
153
153
153
153
153
153
153
153
153
153
153
153
153
153
153
153
153
153
153
153
153
153
153
153
153
153
153
153
153
153
153
153
153
153
153
153
153
153
153
153
153
157
168
183
198
216
231
241
248
250
251
251
251
251
252
253
254
254
255
255
254
254
253
253
254
253
254
254
254
253
251
247
240
230
216
201
186
173
163
157
154
153
153
153
153
153
153
153
153
153
153
153
153
153
153
153
153
153
153
153
153
153
153
153
153
153
153
153
153
153
153
153
153
153
153
153
153
153
153
153
153
153
153
153
153
153
153
153
153
153
153
153
156
165
180
198
216
231
242
249
252
254
254
253
252
251
251
253
254
255
255
255
255
254
253
253
253
254
254
254
254
254
253
252
249
241
233
219
206
190
177
166
158
155
153
153
153
153
153
153
153
153
153
153
153
153
153
153
153
153
153
153
153
153
153
153
153
153
153
153
153
153
153
153
153
153
153
153
153
153
153
153
153
153
153
153
153
153
153
153
153
153
153
156
164
178
195
215
230
242
250
253
254
255
255
254
253
251
251
253
254
255
255
255
255
254
253
253
253
254
255
255
255
255
255
254
253
250
245
236
224
209
193
178
167
159
154
153
153
153
153
153
153
153
153
153
153
153
153
153
153
153
153
153
153
153
153
153
153
153
153
153
153
153
153
153
153
153
153
153
153
153
153
153
153
153
153
153
153
153
153
153
153
154
157
164
177
195
212
229
242
250
253
254
255
255
255
254
253
252
252
253
254
255
255
255
254
254
253
252
253
254
255
255
255
255
255
255
254
254
251
247
238
226
209
191
176
165
157
154
153
153
153
153
153
153
153
153
153
153
153
153
153
153
153
153
153
152
153
152
153
152
153
152
153
152
153
153
153
153
153
153
153
153
153
153
153
153
153
153
153
153
153
153
154
159
166
179
195
212
229
241
249
253
254
255
255
255
255
255
253
252
252
254
254
255
255
255
255
254
254
253
254
254
255
255
255
255
255
255
255
255
254
252
248
239
223
207
187
173
162
156
153
153
153
153
153
153
153
153
153
153
152
152
152
152
152
152
152
152
152
152
152
152
152
152
152
152
152
153
153
153
153
153
153
153
153
153
153
153
153
153
153
153
153
155
159
167
179
195
212
229
240
249
253
254
255
255
255
255
255
254
253
252
252
253
255
255
255
255
255
255
254
253
253
254
254
255
255
255
255
255
255
255
255
254
252
247
236
219
199
181
167
159
154
153
153
153
153
153
153
153
153
152
152
152
152
152
152
152
152
152
152
152
152
152
152
152
152
152
152
153
153
153
153
153
153
153
153
153
153
153
153
153
153
153
154
159
167
179
194
213
228
241
249
253
254
255
255
255
255
255
255
254
252
251
252
254
255
255
255
255
255
255
254
253
253
253
253
254
255
255
255
255
255
255
255
255
254
251
243
228
209
189
172
161
155
153
153
153
153
153
153
153
152
153
152
152
152
152
152
152
152
152
152
152
152
152
152
152
152
152
152
153
153
153
153
153
153
153
153
153
153
153
153
153
153
154
157
165
176
191
210
227
241
249
253
254
255
255
255
255
255
255
254
253
250
249
252
254
255
255
255
255
255
255
255
254
253
252
252
253
254
255
255
255
255
255
255
255
255
253
247
235
215
193
176
164
157
153
153
153
153
153
153
153
153
153
153
153
153
153
153
153
153
153
153
153
153
153
153
153
153
153
153
153
153
153
153
153
153
153
153
153
153
153
153
153
153
155
161
170
185
204
224
239
249
253
255
255
255
255
255
255
255
255
253
250
247
248
251
254
255
255
255
255
255
255
255
255
254
253
251
251
252
253
254
255
255
255
255
255
255
253
249
237
219
197
178
165
157
154
153
153
153
153
153
153
153
153
153
153
153
153
153
153
153
153
153
153
153
153
153
153
153
153
153
153
153
153
153
153
153
153
153
153
153
153
152
153
153
157
164
177
196
215
234
247
252
254
255
255
255
255
255
255
255
253
251
246
243
245
250
253
255
255
255
255
255
255
255
255
254
253
251
248
248
250
252
253
254
255
255
255
255
253
248
235
217
195
177
165
157
154
153
153
153
153
153
153
153
153
153
153
153
153
153
153
153
153
153
153
153
153
153
153
153
153
153
153
153
153
153
153
153
153
153
153
153
153
153
153
154
159
168
183
201
223
241
250
254
255
255
255
255
255
255
255
254
251
246
240
238
243
251
253
255
255
255
255
255
255
255
255
255
254
251
247
244
243
246
249
252
253
254
254
253
251
244
231
213
192
175
164
157
154
153
153
153
153
153
153
153
153
153
153
153
153
153
153
153
153
153
153
153
153
153
153
153
153
153
153
153
153
153
153
153
153
153
153
153
153
153
153
155
160
170
186
207
228
243
251
254
255
255
255
255
255
255
254
251
246
236
231
232
240
251
253
255
255
255
255
255
255
255
255
255
255
253
246
239
235
236
239
244
248
250
249
249
244
236
221
201
184
171
161
156
153
153
153
153
153
153
153
153
153
153
153
153
153
153
153
153
153
153
153
153
153
153
153
153
153
153
153
153
153
153
153
153
153
153
153
153
153
153
153
155
160
170
185
205
227
243
251
255
255
255
255
255
254
253
251
245
234
225
221
227
239
250
254
255
255
255
255
255
255
255
255
255
255
253
247
237
227
223
224
229
235
239
239
237
231
221
207
191
178
166
159
155
153
153
153
153
153
153
153
153
153
153
153
153
153
153
153
153
153
153
153
153
153
153
153
153
153
153
153
153
153
153
153
153
153
153
153
153
153
153
153
155
159
169
184
203
223
238
249
253
254
254
254
253
252
249
243
233
220
209
211
222
236
249
254
255
255
255
255
255
255
255
255
255
255
253
247
233
221
209
206
208
216
219
222
219
214
202
192
179
169
161
157
154
153
153
153
153
153
153
153
153
153
153
153
153
153
153
153
153
153
153
153
153
153
153
153
153
153
153
153
153
153
153
153
153
153
153
153
153
153
153
153
154
158
166
178
193
214
232
243
249
251
251
251
249
245
238
229
215
202
196
203
218
236
249
253
255
255
255
255
255
255
255
255
255
255
253
248
235
215
199
189
189
194
197
200
198
193
185
178
169
163
158
155
153
153
153
153
153
153
153
153
153
153
153
153
153
152
152
152
152
152
153
153
153
153
153
153
153
153
153
153
153
153
153
153
153
153
153
153
153
153
153
152
153
156
163
172
186
201
217
231
238
243
243
243
237
232
221
210
196
185
184
197
218
236
249
254
255
255
255
255
255
255
255
255
255
255
254
248
233
213
191
176
173
175
179
180
179
177
172
166
161
158
155
153
153
153
153
153
153
153
153
153
153
152
152
152
152
152
152
152
152
152
152
152
152
152
152
152
152
152
152
153
153
153
153
153
153
153
153
153
153
153
153
153
153
155
159
165
175
187
200
213
222
226
228
225
219
211
201
190
179
172
177
193
216
238
250
254
255
255
255
255
255
255
255
255
255
255
254
249
235
212
189
170
163
163
165
166
165
165
162
159
157
155
153
153
153
153
153
153
153
153
153
153
153
153
153
153
153
153
152
152
152
152
152
152
152
152
152
152
152
152
152
153
153
153
153
153
153
153
153
153
153
153
153
153
153
154
156
161
167
175
185
192
201
205
205
202
199
190
182
173
165
163
173
194
218
239
250
254
255
255
255
255
255
255
255
255
255
255
254
248
235
215
190
168
157
156
157
157
157
157
156
155
154
153
153
153
153
153
153
153
153
153
153
153
153
153
153
153
153
153
153
153
152
152
152
152
152
152
152
152
152
152
152
153
153
153
153
153
153
153
153
153
153
153
153
153
153
153
154
156
160
165
171
177
181
184
184
183
177
172
166
160
156
158
170
192
218
240
250
254
255
255
255
255
255
255
255
255
255
255
254
250
239
220
198
174
160
155
153
154
154
154
153
153
153
153
153
153
153
153
153
153
153
153
153
153
153
153
153
153
153
153
153
153
153
153
153
153
153
153
153
153
153
153
153
153
153
153
153
153
153
153
153
153
153
153
153
153
153
153
153
154
156
159
162
165
167
169
168
167
164
161
157
154
154
159
174
195
221
241
250
254
255
255
255
255
255
255
255
255
255
255
254
251
243
230
209
187
171
162
157
155
153
153
153
153
153
153
153
153
153
153
153
153
153
153
153
153
153
153
153
153
153
153
153
153
153
153
153
153
153
153
153
153
153
153
153
152
152
153
153
153
153
153
153
153
152
153
153
153
153
153
153
153
153
155
156
157
158
159
158
157
155
155
153
153
154
161
176
199
222
241
251
254
255
255
255
255
255
255
255
255
255
255
255
253
249
239
226
207
190
178
168
161
156
154
153
153
153
153
153
153
153
153
153
153
153
153
153
153
153
153
153
153
153
153
153
153
153
153
153
153
153
153
153
153
153
153
153
152
153
153
153
153
152
152
152
152
152
153
153
153
153
153
153
153
153
153
153
153
154
154
154
153
153
153
153
153
155
164
182
203
227
244
252
254
255
255
255
255
255
255
255
255
255
255
255
254
253
248
241
227
213
199
187
175
166
159
155
153
153
153
153
153
153
153
153
153
153
153
153
153
153
153
153
153
153
153
153
153
153
153
153
153
153
153
153
153
153
153
153
151
152
153
153
153
152
152
152
152
152
152
153
153
153
153
153
153
153
153
153
153
153
153
153
153
153
153
153
154
159
171
190
213
233
247
253
254
255
255
255
255
255
255
255
255
255
255
255
255
255
253
250
244
233
221
208
195
183
172
163
157
154
153
153
153
153
153
153
153
153
153
153
153
153
153
153
153
153
153
153
153
153
153
153
153
153
153
153
153
153
153
153
152
153
153
153
153
152
152
151
152
152
152
153
153
153
153
153
153
153
153
153
153
153
153
153
153
153
153
153
155
164
180
202
223
242
251
254
255
255
255
255
255
255
255
255
255
255
255
255
255
255
255
254
251
247
240
229
217
203
189
177
167
159
155
153
153
153
153
153
153
153
153
153
153
153
153
153
153
153
153
153
153
153
153
153
153
153
153
153
153
153
153
153
151
152
153
153
153
152
152
151
152
152
153
153
153
153
153
153
153
153
153
153
153
153
153
153
153
153
153
153
159
173
191
213
233
247
253
255
255
255
255
255
255
255
255
255
255
255
255
255
255
255
255
255
254
253
251
244
236
223
211
195
182
170
161
155
153
153
153
153
153
153
153
153
153
153
153
153
153
153
153
153
153
153
153
153
153
153
153
153
153
153
153
153
151
152
153
153
153
152
152
152
152
153
153
153
153
153
153
153
153
153
153
153
153
153
153
153
153
153
153
155
164
181
203
224
241
251
254
255
255
255
255
255
255
255
255
255
255
255
255
255
255
255
255
255
255
254
254
252
248
239
229
215
201
185
172
161
155
153
153
153
153
153
153
153
153
153
153
153
153
153
153
153
153
153
153
153
153
153
153
153
153
153
152
152
151
152
153
153
153
152
152
152
152
153
153
153
153
153
153
153
153
153
153
153
153
153
153
153
153
153
153
158
172
191
214
234
247
252
254
255
255
255
255
255
255
255
255
255
255
255
255
255
255
255
255
255
255
255
254
254
253
250
243
234
219
203
187
173
162
155
153
153
153
153
153
153
153
153
152
152
152
152
152
152
152
152
152
152
152
152
152
152
152
152
152
152
150
152
153
153
153
153
152
152
152
153
153
153
153
153
153
153
153
153
153
153
153
153
153
153
153
153
155
164
181
203
224
241
250
254
255
255
255
255
255
255
255
255
255
255
255
255
255
255
255
255
255
255
255
255
255
255
254
253
251
245
235
222
204
187
171
161
155
153
153
153
153
153
153
153
153
153
153
153
153
153
152
153
152
152
152
152
152
152
152
152
152
152
151
152
153
153
153
152
152
152
152
152
153
153
153
153
153
153
153
153
153
153
153
153
153
153
153
153
158
172
191
214
234
246
252
254
255
255
255
255
255
255
255
255
255
255
255
255
255
255
255
255
255
255
255
255
255
255
255
255
254
252
247
235
222
203
185
170
159
154
153
153
153
153
153
153
153
153
153
153
153
153
153
153
153
153
153
153
153
153
153
153
153
153
152
152
153
153
153
153
152
152
153
153
153
153
153
153
153
153
153
153
153
153
153
153
153
153
153
155
165
181
203
225
241
250
254
255
255
255
255
255
255
255
255
255
255
255
255
255
255
255
255
255
255
255
255
255
255
255
255
255
255
254
252
246
236
220
200
183
167
157
153
153
153
153
153
153
153
153
153
153
153
153
153
153
153
153
153
153
153
153
153
153
153
153
152
152
152
153
153
153
153
153
153
152
153
153
153
153
153
153
153
153
153
153
153
153
153
153
153
159
173
193
214
234
247
253
254
255
255
255
255
255
255
254
254
254
255
255
255
255
255
255
255
255
255
255
255
255
255
255
255
255
255
255
254
252
245
234
217
196
178
163
155
153
153
153
153
153
153
153
153
153
153
153
153
153
153
153
153
153
153
153
153
153
153
153
153
153
153
153
153
153
153
153
153
153
153
153
153
153
153
153
153
153
153
153
153
153
153
153
156
166
183
205
226
242
250
254
255
255
255
255
255
255
254
254
254
254
255
255
255
255
255
255
255
255
255
255
255
255
255
255
255
255
255
255
255
254
251
243
229
212
191
172
159
154
153
153
153
153
153
153
153
153
153
153
153
153
153
153
153
153
153
153
153
153
153
153
153
153
153
153
153
153
153
153
153
153
153
153
153
153
153
153
153
153
153
153
153
153
153
154
160
175
194
216
235
247
253
255
255
255
255
255
255
255
254
254
254
254
255
255
255
255
255
255
255
255
255
255
255
255
255
255
255
255
255
255
255
255
253
250
241
225
204
184
167
156
153
153
153
153
153
153
153
153
153
153
153
153
153
153
153
153
153
153
153
153
153
153
153
153
153
153
153
153
153
153
153
153
153
153
153
153
153
153
153
153
153
153
153
153
153
156
166
184
206
227
243
251
254
255
255
255
255
255
255
255
254
254
255
255
255
255
255
255
255
255
255
255
255
255
255
255
255
254
255
255
255
255
255
255
254
253
247
236
218
196
177
162
154
153
153
153
153
153
153
153
153
153
153
153
153
153
153
153
153
153
153
153
153
153
153
153
153
153
153
153
153
153
153
153
153
153
153
153
153
153
153
153
153
153
153
153
154
160
175
196
217
236
248
253
255
255
255
255
255
255
255
254
254
255
255
255
255
255
255
255
255
255
255
255
255
255
255
254
254
254
254
255
255
255
255
255
255
254
251
244
229
210
189
170
157
153
153
153
153
153
153
153
153
153
153
153
153
153
153
153
153
153
153
153
153
153
153
153
153
153
153
153
153
153
153
153
153
153
153
153
153
153
153
153
153
153
153
153
156
167
185
207
229
243
251
254
255
255
255
255
255
255
254
254
254
255
255
255
255
255
255
255
255
255
255
255
255
255
254
254
254
254
254
254
255
255
255
255
255
255
253
250
240
223
201
181
164
155
153
153
153
153
153
153
153
153
153
153
153
153
153
153
153
153
153
153
153
152
153
153
153
153
153
153
153
153
153
153
153
153
153
153
153
153
153
153
153
153
153
154
161
177
196
219
237
249
253
255
255
255
255
255
255
254
254
253
254
255
255
255
255
255
255
255
254
254
254
255
255
255
255
254
254
254
254
254
255
255
255
255
255
255
255
253
247
234
215
193
173
159
153
153
153
153
153
153
153
153
153
153
153
153
153
153
152
152
152
152
152
152
153
153
153
153
153
153
153
153
153
153
153
153
153
153
153
153
153
153
153
153
153
157
168
186
208
229
243
252
254
255
255
255
255
255
255
254
253
253
253
254
255
255
255
255
254
254
254
254
254
254
255
255
255
255
254
253
253
254
255
255
255
255
255
255
255
254
251
243
226
204
181
164
155
152
152
152
152
152
152
152
152
152
152
152
152
152
152
152
152
152
152
151
153
153
153
153
153
153
153
153
153
153
153
153
153
153
153
153
153
153
153
153
155
162
177
197
220
239
249
253
255
255
255
255
255
255
254
254
252
251
252
253
253
253
254
253
253
253
253
253
254
254
255
255
255
255
254
254
253
254
254
255
255
255
255
255
255
255
254
249
236
216
193
173
159
154
153
153
153
152
152
152
152
152
152
152
152
152
152
152
152
152
152
152
152
153
153
153
153
153
153
153
153
153
153
153
153
153
153
153
153
153
153
153
157
169
188
211
231
246
252
254
255
255
255
255
255
255
254
253
253
251
251
252
253
253
253
253
253
252
252
253
254
254
255
255
255
255
255
254
254
254
254
255
255
255
255
255
255
255
255
252
243
225
203
180
164
155
153
153
153
153
153
153
153
153
153
153
152
152
152
152
152
152
152
152
152
152
153
153
153
153
153
153
153
153
153
153
153
153
153
153
153
153
153
154
161
177
200
223
241
251
254
255
255
255
255
255
255
255
254
254
253
253
253
253
253
253
253
253
253
254
253
254
254
255
255
255
255
255
255
254
255
255
255
255
255
255
255
255
255
255
255
253
248
233
211
187
168
157
153
153
153
153
153
153
153
153
153
153
153
153
153
153
153
153
153
153
151
152
153
153
153
153
152
153
153
153
153
153
153
153
153
153
153
153
153
157
169
188
213
234
247
253
254
255
255
255
255
255
255
255
255
255
254
254
254
254
254
255
254
254
254
254
254
254
255
255
255
255
255
255
255
255
255
255
255
255
255
255
255
255
255
255
255
254
250
237
215
191
171
159
153
153
153
153
153
153
153
153
153
153
153
153
153
153
153
153
153
153
151
152
153
153
153
153
152
152
152
152
152
152
152
152
153
153
153
153
154
161
176
199
222
242
251
254
255
255
255
255
255
255
255
255
255
255
255
255
255
255
255
255
255
255
255
255
255
255
255
255
255
255
255
255
255
255
255
255
255
255
255
255
255
255
255
255
255
254
251
240
219
194
173
160
154
153
153
153
153
153
153
153
153
153
153
153
153
153
153
153
153
153
152
152
153
153
153
153
152
152
152
152
152
152
152
152
152
153
153
153
156
166
184
209
231
247
253
255
255
255
255
255
255
255
255
255
255
255
255
255
255
255
255
255
255
255
255
255
255
255
255
255
255
255
255
255
255
255
255
255
255
255
255
255
255
255
255
255
255
254
251
238
217
192
172
159
154
153
153
153
153
153
153
153
153
153
153
153
153
153
153
153
153
153
152
152
153
153
153
153
153
153
153
153
153
153
153
153
153
153
153
153
157
169
190
214
237
250
254
255
255
255
255
255
255
255
255
255
255
255
255
255
255
255
255
255
255
255
255
255
255
255
255
255
255
255
255
255
255
255
255
255
255
255
255
255
255
255
255
255
255
253
248
235
213
190
171
159
154
153
153
153
153
153
153
153
153
153
153
153
153
153
153
153
153
153
153
153
153
153
153
153
153
153
153
153
153
153
153
153
153
153
153
154
159
173
195
220
241
251
255
255
255
255
255
255
255
255
255
255
255
255
255
255
255
255
255
255
255
255
255
255
255
255
255
255
255
255
255
255
255
255
255
255
255
255
255
255
255
255
255
255
254
251
243
225
203
183
167
157
153
153
153
153
153
153
153
153
153
153
153
153
153
153
153
153
153
153
153
153
153
153
153
153
153
153
153
153
153
153
153
153
153
153
153
154
160
174
196
221
241
252
255
255
255
255
255
255
255
255
255
255
255
255
255
255
255
255
255
255
255
255
255
255
255
255
255
254
254
254
254
254
255
255
255
255
255
255
255
255
255
254
254
253
251
245
232
214
194
175
163
155
153
153
153
153
153
153
153
153
153
153
153
153
153
153
153
153
153
153
153
153
153
153
153
153
153
153
153
153
153
153
153
153
153
153
153
154
161
174
195
220
240
251
254
255
255
255
255
255
255
255
255
255
255
254
254
254
253
254
254
254
254
254
254
253
253
253
252
252
251
252
252
253
253
254
255
255
255
255
255
254
254
253
252
249
242
231
216
198
181
167
159
154
153
153
153
153
153
153
153
153
153
153
153
153
153
153
153
153
153
153
153
153
153
153
153
153
153
153
153
153
153
153
153
153
153
153
153
154
159
171
191
214
235
248
254
255
255
255
255
255
255
255
254
253
253
251
252
251
252
252
252
253
253
252
252
251
249
247
246
244
244
244
246
249
251
253
254
255
255
255
255
254
253
250
246
239
227
213
198
183
171
161
155
153
153
153
153
153
153
153
153
153
153
153
153
153
153
153
153
153
153
153
153
153
153
153
153
153
153
153
153
153
153
153
153
153
153
153
153
154
158
168
184
206
227
243
251
254
255
255
255
255
254
253
252
249
247
244
244
245
247
249
250
251
251
250
248
245
242
237
232
230
228
231
236
243
249
253
254
255
255
255
255
254
252
247
238
225
211
194
179
170
161
156
153
153
153
153
153
153
153
153
153
153
153
153
153
153
153
153
153
153
153
153
153
153
153
153
153
153
153
153
153
153
153
153
153
153
153
153
153
153
156
163
177
194
214
233
245
250
253
253
253
253
251
248
243
237
233
231
233
237
243
248
251
252
252
250
247
241
233
223
215
209
207
212
223
235
246
252
254
255
255
255
255
254
252
245
232
216
196
178
167
160
156
153
153
153
153
153
153
153
153
153
153
153
153
153
153
153
153
153
153
153
153
153
153
153
153
153
153
153
153
153
153
153
153
153
153
153
153
153
153
153
155
159
168
183
199
217
230
239
244
246
246
244
239
234
226
218
214
216
224
234
243
249
252
254
254
252
249
241
230
215
201
190
186
195
210
229
244
251
254
255
255
255
255
254
252
245
231
210
187
169
159
155
153
153
153
153
153
153
153
153
153
153
153
153
153
153
153
153
153
153
153
153
153
153
153
153
153
153
153
153
153
153
153
153
153
153
153
153
153
153
153
153
154
156
161
171
183
198
209
221
226
230
229
225
218
211
201
195
196
205
217
233
245
252
254
255
255
254
251
243
229
210
193
178
172
182
203
225
241
251
254
255
255
255
255
255
253
246
230
209
184
165
156
153
153
153
153
153
153
153
153
153
153
153
153
153
153
153
153
153
153
153
153
153
153
153
153
153
153
153
153
153
153
153
153
153
153
153
153
153
153
153
153
153
153
154
157
163
170
180
189
198
203
206
204
201
195
188
182
180
189
205
223
239
248
253
255
255
255
255
252
246
233
214
192
174
167
177
199
223
241
251
254
255
255
255
255
255
253
248
235
211
187
166
156
153
153
153
153
153
153
153
153
153
153
153
153
153
153
153
153
153
153
153
153
153
153
153
153
153
153
153
153
153
153
153
153
153
153
153
153
153
153
153
153
153
153
153
154
157
161
166
172
177
181
182
182
179
178
175
175
182
197
215
231
244
251
254
255
255
255
255
253
248
235
215
194
174
164
173
195
221
239
250
254
255
255
255
255
255
254
248
234
214
189
168
155
153
153
153
153
153
153
153
153
153
153
153
153
153
153
153
153
153
153
153
153
153
153
153
153
153
153
153
153
153
153
153
153
153
153
153
153
153
153
153
153
153
153
153
153
154
156
158
161
163
164
166
168
170
173
179
185
198
214
229
241
249
253
254
255
255
255
255
254
249
238
218
195
174
165
172
194
219
239
250
253
255
255
255
255
255
254
249
237
216
192
170
157
153
153
153
153
153
153
153
153
153
153
153
153
153
153
153
153
153
153
153
153
153
153
153
153
153
153
153
153
153
153
153
153
153
153
153
153
153
153
153
153
153
153
153
153
153
153
154
155
156
157
160
166
172
183
191
205
217
230
239
247
252
254
255
255
255
255
255
253
249
236
217
194
172
162
169
190
215
235
248
253
255
255
255
255
255
254
249
236
216
193
171
157
153
153
153
153
153
153
153
153
153
153
153
153
153
153
153
153
153
153
153
153
153
153
153
153
153
153
153
153
153
153
153
153
153
153
153
153
153
153
153
153
153
153
153
153
153
153
153
153
154
157
162
171
181
197
209
225
234
243
248
252
254
255
255
255
255
255
255
254
249
236
215
191
171
162
166
187
211
233
247
253
255
255
255
255
255
254
249
237
216
193
171
158
153
153
153
153
153
153
153
153
153
153
153
153
153
153
153
153
153
153
153
153
153
153
153
153
153
153
153
153
153
153
153
153
153
153
153
153
153
153
153
153
153
153
153
153
153
153
153
153
155
159
167
179
194
212
227
239
246
251
253
254
255
255
255
255
255
255
255
253
246
231
210
187
167
159
165
182
206
227
244
252
254
255
255
255
255
253
247
233
213
190
170
158
153
153
153
153
153
153
153
153
153
153
153
153
153
153
153
153
153
153
153
153
153
153
153
153
153
153
153
153
153
153
153
153
153
153
153
153
153
153
153
153
153
153
153
153
153
153
153
153
156
162
172
187
205
225
240
248
252
254
255
255
255
255
255
255
255
255
254
252
244
227
205
182
165
158
163
179
199
223
240
250
254
255
255
255
254
252
245
231
209
187
169
158
154
153
153
153
153
153
153
153
153
153
153
153
153
153
153
153
153
153
153
153
153
153
153
153
153
153
153
153
153
153
153
153
153
153
153
153
153
153
153
153
153
153
153
153
153
153
153
154
157
165
177
194
216
234
247
252
254
255
255
255
255
255
255
255
255
255
254
249
237
218
196
175
161
155
160
174
192
213
232
245
252
254
255
255
253
249
240
222
201
182
166
157
153
153
153
153
153
153
153
153
153
153
153
153
153
153
153
153
153
153
153
153
153
153
153
153
153
153
153
153
153
153
153
153
153
153
153
153
153
153
153
153
153
153
153
153
153
153
153
154
158
166
180
199
220
238
249
254
255
255
255
255
255
255
255
255
255
254
251
244
230
209
187
169
158
155
158
169
185
204
223
238
247
251
253
252
249
243
231
213
193
176
163
156
153
153
153
153
153
153
153
153
153
153
153
153
153
153
153
153
153
153
153
153
153
153
153
153
153
153
153
153
153
153
153
153
153
153
153
153
153
153
153
153
153
153
153
153
153
153
153
154
158
166
180
199
220
238
249
254
255
255
255
255
255
255
255
255
254
253
248
236
217
197
178
163
155
153
156
163
176
191
208
225
237
243
246
245
241
231
217
200
183
169
160
154
153
153
153
153
153
153
153
153
153
153
153
153
153
153
153
153
153
153
153
153
153
153
153
153
153
153
153
153
153
153
153
153
153
153
153
153
153
153
153
153
153
153
153
153
153
153
152
153
156
164
177
194
215
234
247
252
254
255
255
255
255
255
254
254
252
249
239
224
205
185
169
158
154
153
155
159
167
180
193
208
220
228
231
230
225
215
201
187
173
163
157
153
153
153
153
153
153
153
153
153
153
153
153
153
153
153
153
153
153
153
153
153
153
153
153
153
153
153
153
153
153
153
153
153
153
153
153
153
153
153
153
153
153
153
153
153
153
153
153
152
156
162
172
187
205
225
240
247
251
253
254
254
254
253
253
251
247
238
225
208
189
174
162
155
153
153
154
156
161
169
179
190
200
209
211
211
204
196
185
174
165
159
154
153
153
153
153
153
153
153
153
153
153
153
153
153
153
153
153
153
153
153
153
153
153
153
153
153
153
153
153
153
153
153
153
153
153
153
153
153
153
153
153
153
153
153
153
153
153
153
153
153
155
159
167
179
194
212
227
237
244
247
249
249
249
248
245
241
233
221
207
190
177
164
156
153
153
153
153
154
157
162
168
176
182
188
190
190
185
179
171
165
159
155
153
153
153
153
153
153
153
153
153
153
153
153
153
153
153
153
153
153
153
153
153
153
153
153
153
153
153
153
153
153
153
153
153
153
153
153
153
153
153
153
153
153
153
153
153
153
153
153
153
153
154
157
162
171
181
196
209
222
229
235
237
239
237
235
229
223
212
202
186
175
165
157
154
153
153
153
153
153
154
157
161
165
169
172
173
173
171
166
163
159
155
153
153
153
153
153
153
153
153
153
153
153
153
153
153
153
153
153
153
153
153
153
153
153
153
153
153
153
153
153
153
153
153
153
153
153
153
153
153
153
153
153
153
153
153
153
153
153
153
153
153
153
153
154
157
164
171
182
191
202
208
215
217
219
217
215
207
202
191
181
171
163
157
154
153
153
153
153
153
153
153
154
156
158
160
162
162
162
161
159
156
155
153
153
153
153
153
153
153
153
153
153
153
153
153
153
153
153
153
153
153
153
153
153
153
153
153
153
153
153
153
153
153
153
153
153
153
153
153
153
153
153
153
153
153
153
153
153
153
153
153
153
153
153
153
153
154
157
162
168
176
183
188
193
195
196
194
191
186
179
173
166
161
156
154
153
153
153
153
153
153
153
153
153
153
154
155
156
156
156
155
155
154
153
153
153
153
153
153
153
153
153
153
153
153
153
153
153
153
153
153
153
153
153
153
153
153
153
153
153
153
152
153
153
153
153
153
153
153
153
153
153
153
153
153
153
153
153
153
153
153
153
153
153
153
153
153
153
153
154
156
159
163
167
170
173
174
175
173
171
167
164
160
157
155
153
153
153
153
153
153
153
153
153
153
153
153
153
153
153
153
153
153
153
153
153
153
153
153
153
153
153
153
153
153
153
153
153
153
153
153
153
153
153
153
153
153
153
153
153
153
153
153
152
153
153
153
153
153
153
153
153
153
153
153
153
153
153
153
153
153
153
153
153
153
153
153
153
153
153
153
153
153
155
156
158
159
160
160
160
159
158
157
155
154
153
153
153
153
153
153
153
153
153
153
153
153
153
153
153
153
153
153
153
153
153
153
153
153
153
153
153
153
153
153
153
153
153
153
153
153
153
153
153
153
153
153
153
153
153
153
153
153
153
153
151
152
153
153
153
153
153
153
153
152
153
152
152
152
152
152
153
153
153
153
153
153
153
153
153
153
153
153
153
153
153
153
153
154
154
154
154
153
153
153
153
153
153
153
153
153
153
153
153
153
153
153
153
153
153
153
153
153
153
153
153
153
153
153
153
153
153
153
153
153
153
153
153
153
153
153
153
153
153
153
153
153
153
153
153
153
153
153
153
153
153
153
148
152
153
153
153
153
153
153
153
153
152
152
151
152
151
152
152
152
152
152
152
152
152
152
152
152
152
152
152
152
152
152
153
153
153
153
153
153
153
153
153
153
153
153
153
153
153
153
153
153
153
153
153
153
153
153
153
153
153
153
153
153
153
153
153
153
153
153
153
153
153
153
153
153
153
153
153
153
153
153
153
153
153
153
153
153
153
153
153
153
153
153
142
151
152
153
153
153
153
153
153
152
152
150
148
146
146
146
148
148
149
149
149
149
149
148
148
148
149
149
151
152
152
152
153
153
153
153
153
153
153
153
153
153
153
153
153
153
153
153
153
153
153
153
153
153
153
153
153
153
153
153
153
153
153
153
153
153
153
153
153
153
153
153
153
153
153
153
153
153
153
153
153
153
153
153
153
153
153
153
153
153
153
153
